<svg width="221" height="40" viewBox="0 0 221 40" fill="none" xmlns="http://www.w3.org/2000/svg">
<g clip-path="url(#clip0_40000149_1846)">
<path d="M143.931 30.7741C139.963 30.7741 136.647 29.4405 133.982 26.7733C131.318 24.1061 129.995 20.7775 130.014 16.7875C130.014 12.7948 131.337 9.47709 133.982 6.83428C136.628 4.14268 139.944 2.79688 143.931 2.79688C147.967 2.79688 151.246 4.25516 153.767 7.17174L151.299 9.56654C150.423 8.45636 149.302 7.56429 148.024 6.9604C146.746 6.35651 145.345 6.05726 143.931 6.08616C142.552 6.05109 141.18 6.29847 139.9 6.81308C138.62 7.32769 137.458 8.09867 136.487 9.07863C134.516 11.0519 133.531 13.627 133.531 16.8038C133.531 19.9806 134.518 22.538 136.491 24.4761C137.46 25.4592 138.62 26.2334 139.899 26.7509C141.179 27.2684 142.551 27.5182 143.931 27.4848C147.046 27.4848 149.756 26.1756 152.063 23.5572L154.568 25.9967C153.3 27.5165 151.7 28.7252 149.892 29.5299C148.018 30.3709 145.985 30.7954 143.931 30.7741ZM160.252 3.39456V30.1683H156.808V3.39456H160.252ZM162.736 21.0119C162.736 18.1929 163.622 15.8618 165.395 14.0187C166.268 13.1111 167.322 12.396 168.487 11.9192C169.653 11.4424 170.906 11.2144 172.165 11.2498C173.418 11.2135 174.666 11.4412 175.826 11.9183C176.986 12.3953 178.032 13.1109 178.898 14.0187C180.692 15.8646 181.589 18.1957 181.589 21.0119C181.589 23.8282 180.692 26.1607 178.898 28.0093C178.032 28.9163 176.985 29.6312 175.825 30.1075C174.665 30.5838 173.418 30.8109 172.165 30.7741C170.906 30.8102 169.654 30.583 168.488 30.1069C167.322 29.6308 166.269 28.9163 165.395 28.0093C163.622 26.1634 162.736 23.8309 162.736 21.0119ZM166.18 21.0119C166.18 22.9825 166.753 24.5791 167.9 25.8015C168.449 26.3823 169.111 26.8449 169.845 27.1611C170.579 27.4773 171.369 27.6404 172.169 27.6404C172.968 27.6404 173.759 27.4773 174.493 27.1611C175.227 26.8449 175.889 26.3823 176.438 25.8015C177.584 24.5791 178.158 22.9825 178.158 21.0119C178.158 19.0414 177.582 17.4584 176.43 16.263C175.887 15.672 175.227 15.2002 174.492 14.8775C173.757 14.5548 172.963 14.3881 172.161 14.3881C171.358 14.3881 170.564 14.5548 169.829 14.8775C169.094 15.2002 168.435 15.672 167.891 16.263C166.75 17.4828 166.18 19.0658 166.18 21.0119ZM200.134 30.1683H196.84V27.6352H196.69C196.105 28.5884 195.271 29.3642 194.279 29.8796C193.245 30.4636 192.079 30.7717 190.892 30.7741C188.648 30.7741 186.921 30.133 185.712 28.8509C184.503 27.5688 183.899 25.7419 183.899 23.3701V11.8475H187.338V23.1465C187.414 26.1282 188.923 27.619 191.864 27.619C192.527 27.6253 193.184 27.4782 193.781 27.189C194.378 26.8998 194.901 26.4765 195.308 25.952C196.233 24.8337 196.724 23.4188 196.69 21.9674V11.8475H200.134V30.1683ZM211.311 30.766C210.137 30.7692 208.976 30.5162 207.91 30.0246C206.844 29.5331 205.899 28.8148 205.139 27.9198C203.451 26.0182 202.544 23.5497 202.598 21.0079C202.545 18.4662 203.452 15.9982 205.139 14.0959C205.899 13.201 206.844 12.4827 207.91 11.9911C208.976 11.4995 210.137 11.2465 211.311 11.2498C212.592 11.2344 213.857 11.5302 214.999 12.1118C216.042 12.6274 216.927 13.4155 217.56 14.3927H217.71L217.56 11.8475V3.39456H221V30.1683H217.71V27.6352H217.56C216.927 28.6124 216.042 29.4005 214.999 29.9162C213.857 30.4964 212.591 30.7908 211.311 30.7741V30.766ZM211.872 27.6271C212.657 27.6495 213.438 27.4965 214.157 27.1793C214.875 26.8621 215.514 26.3887 216.027 25.7934C217.149 24.5709 217.71 22.9744 217.71 21.0038C217.775 19.2642 217.173 17.5657 216.027 16.2549C215.518 15.6529 214.88 15.1726 214.161 14.8489C213.442 14.5253 212.66 14.3667 211.872 14.3846C211.085 14.373 210.306 14.5345 209.588 14.8577C208.871 15.1809 208.233 15.6579 207.721 16.2549C206.575 17.5657 205.973 19.2642 206.037 21.0038C206.037 22.9527 206.598 24.537 207.721 25.7568C208.233 26.3546 208.87 26.8327 209.588 27.1573C210.305 27.4818 211.085 27.645 211.872 27.6352V27.6271Z" fill="#5F6368"/>
<path d="M15.3527 30.7687C7.00955 30.7687 0 23.9706 0 15.6274C0 7.28425 7.00955 0.486125 15.3527 0.486125C17.2716 0.456221 19.1771 0.809811 20.9574 1.52615C22.7378 2.24249 24.3572 3.30716 25.7207 4.6577L22.8054 7.57699C20.8079 5.64793 18.1294 4.58561 15.3527 4.62111C13.9147 4.62151 12.4911 4.90761 11.1646 5.46279C9.83803 6.01797 8.63503 6.83117 7.62541 7.85516C6.61579 8.87916 5.81968 10.0935 5.2833 11.4278C4.74693 12.762 4.48098 14.1895 4.50091 15.6274C4.48153 17.0649 4.74787 18.492 5.28449 19.8258C5.82111 21.1595 6.61731 22.3734 7.62687 23.397C8.63644 24.4206 9.83926 25.2334 11.1655 25.7883C12.4918 26.3432 13.915 26.6292 15.3527 26.6296C19.3007 26.6296 21.5491 25.0439 22.9884 23.6046C24.1716 22.4215 24.9441 20.7219 25.2409 18.3963H15.2429V14.2613H29.2742C29.4332 15.1125 29.5081 15.9772 29.4978 16.8431C29.4978 19.9453 28.6481 23.7876 25.9158 26.5198C23.2486 29.2887 19.8536 30.7687 15.3527 30.7687Z" fill="#4285F4"/>
<path d="M50.482 21.0182C50.482 23.6062 49.4539 26.0882 47.6239 27.9182C45.7939 29.7482 43.3119 30.7763 40.7239 30.7763C38.1359 30.7763 35.6539 29.7482 33.8239 27.9182C31.9939 26.0882 30.9658 23.6062 30.9658 21.0182C30.9658 18.4275 31.995 15.943 33.8269 14.1111C35.6588 12.2792 38.1434 11.25 40.7341 11.25C43.3248 11.25 45.8093 12.2792 47.6412 14.1111C49.4731 15.943 50.5023 18.4275 50.5023 21.0182H50.482ZM46.2047 21.0182C46.2047 17.5094 43.6635 15.1105 40.7158 15.1105C37.768 15.1105 35.2228 17.5094 35.2228 21.0182C35.2228 24.5271 37.768 26.9137 40.7158 26.9137C43.6635 26.9137 46.2047 24.4742 46.2047 21.0182Z" fill="#EA4335"/>
<path d="M71.7422 21.0159C71.7422 23.6039 70.7141 26.0859 68.8841 27.9159C67.0542 29.7459 64.5721 30.774 61.9841 30.774C59.3961 30.774 56.9141 29.7459 55.0841 27.9159C53.2542 26.0859 52.2261 23.6039 52.2261 21.0159C52.2261 18.4279 53.2542 15.9459 55.0841 14.1159C56.9141 12.2859 59.3961 11.2578 61.9841 11.2578C64.5721 11.2578 67.0542 12.2859 68.8841 14.1159C70.7141 15.9459 71.7422 18.4279 71.7422 21.0159ZM67.4649 21.0159C67.4649 17.507 64.9238 15.1082 61.976 15.1082C59.0283 15.1082 56.483 17.507 56.483 21.0159C56.483 24.5247 59.0242 26.9114 61.976 26.9114C64.9278 26.9114 67.4649 24.4719 67.4649 21.0159Z" fill="#FBBC04"/>
<path d="M92.0798 11.8737V29.3569C92.0798 36.5576 87.835 39.5216 82.8177 39.5216C80.9681 39.531 79.1578 38.9876 77.6191 37.961C76.0804 36.9345 74.8835 35.4717 74.1818 33.7603L77.9102 32.203C78.573 33.7887 80.1953 35.6712 82.8177 35.6712C86.0257 35.6712 88.022 33.6789 88.022 29.9505V28.5437H87.8716C87.2289 29.2629 86.4374 29.8336 85.5521 30.2163C84.6667 30.5989 83.7087 30.7843 82.7446 30.7596C77.8655 30.7596 73.3931 26.5108 73.3931 21.0463C73.3931 15.5818 77.8655 11.2598 82.7446 11.2598C83.7051 11.2367 84.6595 11.4192 85.5437 11.795C86.428 12.1709 87.2217 12.7314 87.8716 13.4391H88.022V11.8737H92.0798ZM88.3148 21.0707C88.3148 17.635 86.0257 15.1264 83.1105 15.1264C80.1953 15.1264 77.6866 17.635 77.6866 21.0707C77.6866 24.5063 80.1587 26.9174 83.1105 26.9174C86.0623 26.9174 88.3148 24.4535 88.3148 21.0585V21.0707Z" fill="#4285F4"/>
<path d="M99.4387 1.51562V30.1637H95.1411V1.51562H99.4387Z" fill="#34A853"/>
<path d="M116.032 24.2282L119.354 26.4441C118.462 27.7816 117.252 28.8767 115.833 29.631C114.414 30.3854 112.829 30.7755 111.222 30.7661C105.688 30.7661 101.553 26.4807 101.553 21.0081C101.553 15.2102 105.725 11.25 110.742 11.25C115.759 11.25 118.268 15.2752 119.081 17.4545L119.537 18.5767L106.526 23.968C107.522 25.9278 109.071 26.9239 111.25 26.9239C113.43 26.9239 114.926 25.8546 116.032 24.2282ZM105.81 20.7194L114.519 17.1008C114.039 15.881 112.6 15.0313 110.901 15.0313C110.191 15.0638 109.494 15.2376 108.852 15.5424C108.21 15.8473 107.635 16.2771 107.161 16.8067C106.687 17.3364 106.324 17.9552 106.092 18.627C105.86 19.2988 105.764 20.0101 105.81 20.7194Z" fill="#EA4335"/>
</g>
<defs>
<clipPath id="clip0_40000149_1846">
<rect width="221" height="39.0323" fill="white" transform="translate(0 0.484375)"/>
</clipPath>
</defs>
</svg>
