<?xml version="1.0" encoding="UTF-8"?>
<svg id="Layer_1" xmlns="http://www.w3.org/2000/svg" xmlns:xlink="http://www.w3.org/1999/xlink" version="1.1" viewBox="0 0 281.5 325.2">
  <!-- Generator: Adobe Illustrator 29.2.1, SVG Export Plug-In . SVG Version: 2.1.0 Build 116)  -->
  <defs>
    <style>
      .st0 {
        fill: #fff;
        fill-rule: evenodd;
      }
    </style>
  </defs>
  <path id="path11949" class="st0" d="M58.3,273.9L0,237.5V81.7L142.5,0l139,81.8v163.9l-141.2,79.5-49-30.7v-74.7l-26.6-16.6v-84.5l77-44.1,75.2,44.3v88.5l-59.6,33.6v-35.7c17.9-6.9,30.7-24.5,30.7-45.4s-21.3-48.5-47.2-48.5-47.2,21.6-47.2,48.5,12.8,38.5,30.7,45.4v67.5l17,10.7,104.4-58.8v-122.4l-103.4-60.8-106.4,61v115.1l22.4,14v42.3ZM140.8,137.7c11.7,0,21,10.1,21,22.3s-9.3,22.3-21,22.3-21-10.1-21-22.3,9.3-22.3,21-22.3Z"/>
</svg>