<?xml version="1.0" encoding="UTF-8"?>
<svg id="Ebene_2" data-name="Ebene 2" xmlns="http://www.w3.org/2000/svg" viewBox="0 0 1238.24 337.65">
  <defs>
    <style>
      .cls-1 {
        fill: #fff;
      }

      .cls-2 {
        fill: #062035;
      }

      .cls-3 {
        fill: #ff8500;
      }
    </style>
  </defs>
  <g id="Ebene_1-2" data-name="Ebene 1">
    <g>
      <path class="cls-2" d="M916.13,110.07h32.83v15h.46c4.56-8.64,15.72-17.73,32.36-17.73,34.63,0,41.03,22.73,41.03,52.28v60.92h-34.17v-54.1c0-12.73-.24-29.09-17.78-29.09s-20.51,13.87-20.51,28.19v55.01h-34.2v-110.47Z"/>
      <path class="cls-2" d="M1136.86,201.68c-10.65,13.51-28.19,21.25-45.52,21.25-33.3,0-59.94-22.13-59.94-56.46s26.64-56.46,59.94-56.46c31.09,0,50.62,22.14,50.62,56.46v10.41h-77.26c2.67,12.62,12.21,20.81,25.09,20.81,10.87,0,18.2-5.53,23.75-13.07l23.31,17.05ZM1108.67,154.29c.25-11.01-8.48-20.13-19.48-20.37-.32,0-.63,0-.95,0-14.65,0-22.64,9.96-23.53,20.37h43.96Z"/>
      <path class="cls-2" d="M1213.6,144.33c-4.65-5.9-11.81-9.27-19.32-9.08-5.55,0-12.2,2.44-12.2,8.85,0,15.94,56.17,2.44,56.17,43.4,0,27.46-26.65,35.43-49.73,35.43-15.1,0-31.76-3.76-42.4-14.61l20.2-22.36c6.21,7.52,13.54,11.73,23.52,11.73,7.55,0,15.1-1.99,15.1-7.74,0-17.28-56.17-2.65-56.17-43.62,0-25.24,22.65-36.31,45.3-36.31,14.2,0,29.96,3.54,39.96,14.17l-20.42,20.15h0Z"/>
      <path class="cls-2" d="M691.86,235.11c-8.87,22.81-13.98,35.66-45.73,35.66-8.45.01-16.84-1.34-24.86-3.99l4.44-27.23c4.89,2.2,10.18,3.33,15.54,3.33,15.1,0,17.54-6.43,22.2-18.16l2.44-6.2-47.28-108.5h35.97l27.74,71.08h.45l23.75-71.08h34.19l-48.84,125.1Z"/>
      <rect class="cls-2" x="865.79" y="110.42" width="33.31" height="110.12"/>
      <path class="cls-3" d="M168.82,337.65c93.24,0,168.82-75.58,168.82-168.82S262.06,0,168.82,0,0,75.58,0,168.82v.02c.01,93.23,75.59,168.81,168.82,168.81"/>
      <path class="cls-1" d="M140.86,168.82c0,5.4.78,10.78,2.32,15.96h22.39c-8.89-17.53-1.88-38.95,15.65-47.84,17.53-8.89,38.95-1.88,47.84,15.65,8.89,17.53,1.88,38.95-15.65,47.84-4.98,2.53-10.49,3.84-16.08,3.85h-67.44c-13.43,0-24.32-10.88-24.33-24.31,0-13.43,10.88-24.32,24.31-24.33h.02c.85-7.67,3.68-14.98,8.21-21.22h-8.21c-25.04-.17-45.47,20-45.64,45.04-.17,25.04,20,45.47,45.04,45.64.2,0,.4,0,.6,0h67.44c31.08-.1,56.19-25.38,56.09-56.46-.1-31.08-25.38-56.19-56.46-56.09-31.01.1-56.09,25.26-56.09,56.27"/>
      <path class="cls-2" d="M467.85,209.31h-.45c-7.32,11.51-20.64,16.16-34.19,16.16-20.2,0-38.41-11.51-38.41-33.22,0-37.19,45.29-37.86,73.04-37.86,0-11.74-9.77-19.27-21.31-19.27-10.48.09-20.38,4.79-27.08,12.84l-17.76-18.15c12.21-11.51,29.97-17.27,47.51-17.27,38.85,0,49.28,19.71,49.28,55.58v54.69h-30.64v-13.51h0ZM459.64,175.65c-10.21,0-32.86.89-32.86,15.5,0,7.98,8.44,11.74,15.76,11.74,13.1,0,25.31-6.87,25.31-20.15v-7.09h-8.21Z"/>
      <path class="cls-2" d="M511.18,112.77h32.77v14.98h.45c4.55-8.63,15.71-17.71,32.32-17.71,34.58,0,40.97,22.7,40.97,52.2v60.84h-34.14v-54.02c0-12.71-.22-29.05-17.75-29.05s-20.48,13.85-20.48,28.15v54.93h-34.14v-110.32Z"/>
      <path class="cls-2" d="M743.87,112.61h32.83v15h.46c4.56-8.64,15.73-17.74,32.36-17.74,34.65,0,41.03,22.73,41.03,52.28v60.93h-34.19v-54.1c0-12.73-.23-29.09-17.78-29.09s-20.51,13.87-20.51,28.19v55.01h-34.19v-110.48Z"/>
    </g>
  </g>
</svg>