
        <svg xmlns="http://www.w3.org/2000/svg" xmlns:xlink="http://www.w3.org/1999/xlink" version="1.1" width="3162.3083859332733" 
        height="667.3141157244054" viewBox="0 0 3162.3083859332733 667.3141157244054">
			
			<g transform="scale(8.115419296663662) translate(10, 10)">
				<defs id="SvgjsDefs3017"></defs><g id="SvgjsG3018" featureKey="JiLV9t-0" transform="matrix(1.157288823485306,0,0,1.157288823485306,-16.202043528794285,-26.72129141961527)" fill="#1a3f54"><title xmlns="http://www.w3.org/2000/svg">Datascience</title><path xmlns="http://www.w3.org/2000/svg" d="M86,50.94V41.5a2.2,2.2,0,0,0,0-.36c0-3.25-5.67-5-11-5-5.11,0-10.51,1.61-11,4.6a1.06,1.06,0,0,0-.08.4v6c-4.78.2-9.5,1.79-9.92,4.58a1.06,1.06,0,0,0-.08.4V71.86c0,3.25,5.67,5,11,5s11-1.75,11-5v-6c5-.2,10-1.93,10-5V51.5a2.2,2.2,0,0,0,0-.36A1.42,1.42,0,0,0,86,50.94ZM56,55.07c2.12,1.36,5.64,2.07,9,2.07s6.83-.69,9-2v7.25c-.4,1.2-3.8,2.77-9,2.77-5.49,0-9-1.78-9-3a1.42,1.42,0,0,0,0-.2ZM76,52.5a2.2,2.2,0,0,0,0-.36c0-3-5-4.79-10-5V44.07c2.12,1.36,5.64,2.07,9,2.07s6.83-.69,9-2v7.25c-.37,1.13-3.38,2.57-8,2.75ZM75,38.14c5.34,0,8.79,1.67,9,2.89,0,0,0,.07,0,.11v.23c-.4,1.2-3.8,2.77-9,2.77-5.49,0-9-1.78-9-3S69.51,38.14,75,38.14Zm-10,11c5.34,0,8.79,1.67,9,2.89,0,0,0,.07,0,.11v.23c-.4,1.2-3.8,2.77-9,2.77-5.49,0-9-1.78-9-3S59.51,49.14,65,49.14Zm0,25.72c-5.49,0-9-1.78-9-3V65.07c2.12,1.36,5.64,2.07,9,2.07s6.83-.69,9-2v6.74C74,73.08,70.45,74.86,65,74.86Zm11-11V62.5a2.2,2.2,0,0,0,0-.36,1.42,1.42,0,0,0,0-.2V56.12a17.33,17.33,0,0,0,8-2v6.74C84,62,80.88,63.64,76,63.84ZM46.65,58.17l16.42-32,3.61,6a1,1,0,1,0,1.71-1l-4.53-7.59a1,1,0,0,0-.89-.49,1,1,0,0,0-.86.54L44.88,57.24a4.32,4.32,0,0,0-.88-.1,3.86,3.86,0,0,0-.84.09l-7.9-15.8a4,4,0,1,0-4.82-.25l-8,12H15a1,1,0,0,0,0,2h8a1,1,0,0,0,.83-.45l8.42-12.63a3.74,3.74,0,0,0,.75.08c.12,0,.24,0,.36,0l8,16a4,4,0,1,0,5.27,0ZM33,36.14a2,2,0,1,1-2,2A2,2,0,0,1,33,36.14Zm11,27a2,2,0,1,1,2-2A2,2,0,0,1,44,63.14Z"></path></g><g id="SvgjsG3019" featureKey="Yxc9Rz-0" transform="matrix(3.174824632794636,0,0,3.174824632794636,97.20222454753323,-9.695500523194976)" fill="#1a3f54"><path d="M9.404297 12.548828 c1.591797 0.439453 2.65625 1.484375 2.65625 3.496094 c0 2.382813 -1.445312 3.955078 -4.423828 3.955078 l-5.810547 0 l0 -14.111328 l4.570313 0 c3.046875 0 4.648438 1.464844 4.648438 3.867188 c0 1.240234 -0.537109 2.255859 -1.640625 2.792969 z M6.425781 8.320313 l-1.777344 0 l0 3.320313 l1.904297 0 c1.25 0 1.796875 -0.742187 1.796875 -1.699219 c0 -0.9375 -0.615234 -1.621094 -1.923828 -1.621094 z M7.089844 17.490234 c1.582031 0 2.128906 -0.849609 2.128906 -1.767578 c0 -0.9375 -0.537109 -1.826172 -2.1875 -1.826172 l-2.382812 0 l0 3.59375 l2.441406 0 z M23.740235 14.833984 l-0.029297 0.673828 l-7.441406 0 c0.117188 1.669922 1.230469 2.470703 2.568359 2.470703 c1.005859 0 1.787109 -0.46875 2.167969 -1.357422 l2.578125 0.380859 c-0.664062 2.03125 -2.470703 3.193359 -4.726562 3.193359 c-3.242187 0 -5.361328 -1.914062 -5.361328 -5.214844 s2.177734 -5.234375 5.273438 -5.234375 c2.841797 0 4.960938 1.572266 4.970703 5.087891 z M18.789063 11.738281 c-1.279297 0 -2.167969 0.595703 -2.441406 1.933594 l4.609375 0 c-0.146484 -1.279297 -1.015625 -1.933594 -2.167969 -1.933594 z M29.619141 20 c-1.953125 0 -3.066406 -1.132812 -3.066406 -3.134766 l0 -4.746094 l-1.972656 0 l0 -2.158203 l0.634766 0 c1.064453 0 1.650391 -0.410156 1.650391 -1.914062 l0 -1.328125 l2.539063 0 l0 3.242188 l2.070313 0 l0 2.158203 l-2.070312 0 l0 4.443359 c0 0.898438 0.439453 1.298828 1.162109 1.298828 l0.908203 0 l0 2.138672 l-1.855469 0 z M37.392579 20 c-1.953125 0 -3.066406 -1.132812 -3.066406 -3.134766 l0 -4.746094 l-1.972656 0 l0 -2.158203 l0.634766 0 c1.064453 0 1.650391 -0.410156 1.650391 -1.914062 l0 -1.328125 l2.539063 0 l0 3.242188 l2.070313 0 l0 2.158203 l-2.070312 0 l0 4.443359 c0 0.898438 0.439453 1.298828 1.162109 1.298828 l0.908203 0 l0 2.138672 l-1.855469 0 z M50.869141 14.833984 l-0.029297 0.673828 l-7.441406 0 c0.117188 1.669922 1.230469 2.470703 2.568359 2.470703 c1.005859 0 1.787109 -0.46875 2.167969 -1.357422 l2.578125 0.380859 c-0.664062 2.03125 -2.470703 3.193359 -4.726562 3.193359 c-3.242187 0 -5.361328 -1.914062 -5.361328 -5.214844 s2.177734 -5.234375 5.273438 -5.234375 c2.841797 0 4.960938 1.572266 4.970703 5.087891 z M45.917969 11.738281 c-1.279297 0 -2.167969 0.595703 -2.441406 1.933594 l4.609375 0 c-0.146484 -1.279297 -1.015625 -1.933594 -2.167969 -1.933594 z M55.703125 11.552734 c0.507813 -0.888672 1.826172 -1.708984 3.28125 -1.708984 l0 2.509766 c-2.128906 0 -3.144531 0.625 -3.144531 2.753906 l0 4.892578 l-2.832031 0 l0 -10.039062 l2.695313 0 l0 1.591797 z M61.00586 20 l0 -14.111328 l5.107422 0 c4.501953 0 6.728516 2.832031 6.728516 7.050781 c0 4.228516 -2.226562 7.060547 -6.728516 7.060547 l-5.107422 0 z M63.935547 17.412109 l2.03125 0 c2.597656 0 3.789063 -1.621094 3.789063 -4.472656 s-1.191406 -4.472656 -3.789062 -4.472656 l-2.03125 0 l0 8.945313 z M83.164063 12.548828 c1.591797 0.439453 2.65625 1.484375 2.65625 3.496094 c0 2.382813 -1.445312 3.955078 -4.423828 3.955078 l-5.810547 0 l0 -14.111328 l4.570313 0 c3.046875 0 4.648438 1.464844 4.648438 3.867188 c0 1.240234 -0.537109 2.255859 -1.640625 2.792969 z M80.185547 8.320313 l-1.777344 0 l0 3.320313 l1.904297 0 c1.25 0 1.796875 -0.742187 1.796875 -1.699219 c0 -0.9375 -0.615234 -1.621094 -1.923828 -1.621094 z M80.84961 17.490234 c1.582031 0 2.128906 -0.849609 2.128906 -1.767578 c0 -0.9375 -0.537109 -1.826172 -2.1875 -1.826172 l-2.382812 0 l0 3.59375 l2.441406 0 z"></path></g>
			</g>
		</svg>
	