<svg xmlns="http://www.w3.org/2000/svg" viewBox="0 0 200 50">
  <defs>
    <style>
      .cls-1 { fill: #0080ff; }
      .cls-2 { fill: #0080ff; }
    </style>
  </defs>
  <g>
    <path class="cls-1" d="M25,50V40.91A15.16,15.16,0,1,0,9.91,25.09H0A25.06,25.06,0,1,1,25,50Z"/>
    <polygon class="cls-2" points="25 40.91 25 31.82 15.91 31.82 15.91 40.91 25 40.91"/>
    <polygon class="cls-2" points="15.91 40.91 15.91 46.36 10.45 46.36 10.45 40.91 15.91 40.91"/>
    <polygon class="cls-2" points="10.45 40.91 10.45 37.73 7.27 37.73 7.27 40.91 10.45 40.91"/>
    <path class="cls-1" d="M63.3,17.45a7.23,7.23,0,0,1,7.36,7.36V36.73H66.12V25.09A2.91,2.91,0,0,0,63,22a3.08,3.08,0,0,0-3.27,3.27V36.73H55.18V11.82h4.55v5.82A6.73,6.73,0,0,1,63.3,17.45Z"/>
    <path class="cls-1" d="M76.36,11.82a2.73,2.73,0,1,1,2.73,2.73A2.73,2.73,0,0,1,76.36,11.82Zm.91,6.36h3.64V36.73H77.27Z"/>
    <path class="cls-1" d="M96.73,17.45a6.83,6.83,0,0,1,5.18,2.18v-7.81h4.55V36.73h-4.55V34.36a6.83,6.83,0,0,1-5.18,2.18c-4.55,0-7.64-3.45-7.64-9.55S92.18,17.45,96.73,17.45Zm1.09,3.82a5.55,5.55,0,0,0-4.18,1.82A6.5,6.5,0,0,0,92,27a6.5,6.5,0,0,0,1.64,3.91,5.55,5.55,0,0,0,4.18,1.82,5.33,5.33,0,0,0,4-1.73A6.36,6.36,0,0,0,103.45,27a6.36,6.36,0,0,0-1.64-3.91A5.33,5.33,0,0,0,97.82,21.27Z"/>
    <path class="cls-1" d="M118.18,36.91c-5.09,0-8.36-3.45-8.36-9.55s3.27-9.91,8.36-9.91,8.36,3.82,8.36,9.91S123.27,36.91,118.18,36.91Zm0-16.09a4.73,4.73,0,0,0-3.82,1.91,7.09,7.09,0,0,0-1.45,4.18,7.09,7.09,0,0,0,1.45,4.18,4.73,4.73,0,0,0,3.82,1.91,4.73,4.73,0,0,0,3.82-1.91,7.09,7.09,0,0,0,1.45-4.18,7.09,7.09,0,0,0-1.45-4.18A4.73,4.73,0,0,0,118.18,20.82Z"/>
    <path class="cls-1" d="M138.18,17.45a7.23,7.23,0,0,1,7.36,7.36V36.73h-4.55V25.09A2.91,2.91,0,0,0,138,22a3.08,3.08,0,0,0-3.27,3.27V36.73h-4.55V18.18h4.55v2.18A6.73,6.73,0,0,1,138.18,17.45Z"/>
    <path class="cls-1" d="M158.91,36.91c-5.82,0-9.45-4-9.45-9.55s3.64-9.91,9.27-9.91c5.82,0,9.09,4.18,9.09,9.73v1.27H154c.18,2.91,1.82,4.91,5,4.91a6.36,6.36,0,0,0,4.73-2l2.36,2.73A10,10,0,0,1,158.91,36.91Zm-4.73-11.45h9.27a4.55,4.55,0,0,0-4.64-4.64A4.73,4.73,0,0,0,154.18,25.45Z"/>
    <path class="cls-1" d="M183.27,27.91c0,2.91-2.18,5.27-6.18,5.27a8.91,8.91,0,0,1-6.73-2.91l2.73-2.91a5.45,5.45,0,0,0,4,1.82c1.45,0,2.18-.55,2.18-1.27,0-.91-.91-1.27-2.91-1.82-2.91-.73-6.18-1.64-6.18-5.27,0-3.09,2.36-5.27,5.82-5.27a8.55,8.55,0,0,1,6.18,2.55l-2.55,2.91a5.27,5.27,0,0,0-3.64-1.45c-1.27,0-1.82.55-1.82,1.18,0,.82.73,1.18,2.73,1.73C180.09,23.27,183.27,24.27,183.27,27.91Z"/>
    <path class="cls-1" d="M197.27,27.36v9.36h-4.55V27.64c0-1.82-.91-2.73-2.36-2.73a2.73,2.73,0,0,0-2.73,3V36.73h-4.55V18.18h4.55v2a6,6,0,0,1,4.73-2.18C194.91,17.45,197.27,19.82,197.27,27.36Z"/>
  </g>
</svg>
