<svg width="48" height="48" viewBox="0 0 48 48" fill="none" xmlns="http://www.w3.org/2000/svg">
<g clip-path="url(#clip0_40000116_1956)">
<path d="M14.9242 2.56611C14.8741 2.36984 14.7847 2.18576 14.6614 2.02498C14.5382 1.8642 14.3837 1.73005 14.2072 1.63061C14.0307 1.53118 13.8359 1.46853 13.6345 1.44644C13.4331 1.42435 13.2294 1.44328 13.0355 1.50209C12.8417 1.5609 12.6617 1.65836 12.5066 1.7886C12.3514 1.91885 12.2242 2.07917 12.1327 2.2599C12.0412 2.44063 11.9872 2.63803 11.9741 2.84018C11.961 3.04233 11.9889 3.24505 12.0562 3.43611L13.2862 7.49211C10.5327 10.297 8.99005 14.0706 8.99023 18.0011H38.9902C38.9904 14.0706 37.4478 10.297 34.6942 7.49211L35.9242 3.43611C35.9916 3.24505 36.0195 3.04233 36.0064 2.84018C35.9932 2.63803 35.9393 2.44063 35.8478 2.2599C35.7562 2.07917 35.6291 1.91885 35.4739 1.7886C35.3188 1.65836 35.1388 1.5609 34.945 1.50209C34.7511 1.44328 34.5473 1.42435 34.346 1.44644C34.1446 1.46853 33.9498 1.53118 33.7733 1.63061C33.5968 1.73005 33.4423 1.8642 33.319 2.02498C33.1958 2.18576 33.1064 2.36984 33.0562 2.56611L32.1832 5.43411C29.7459 3.84578 26.8994 3.00047 23.9902 3.00111C21.0811 3.00047 18.2345 3.84578 15.7972 5.43411L14.9242 2.56611Z" fill="#BCB5E7"/>
<path d="M38.9902 18V21H25.4902V47.925C29.1902 47.5531 32.6201 45.8202 35.1146 43.0624C37.6091 40.3046 38.9903 36.7186 38.9902 33H40.4902C40.8881 33 41.2696 33.158 41.5509 33.4393C41.8322 33.7206 41.9902 34.1022 41.9902 34.5V36C41.9902 36.3978 42.1483 36.7794 42.4296 37.0607C42.7109 37.342 43.0924 37.5 43.4902 37.5C43.8881 37.5 44.2696 37.342 44.5509 37.0607C44.8322 36.7794 44.9902 36.3978 44.9902 36V34.5C44.9902 33.3065 44.5161 32.1619 43.6722 31.318C42.8283 30.4741 41.6837 30 40.4902 30H38.9902V27H43.4902C43.8881 27 44.2696 26.842 44.5509 26.5607C44.8322 26.2794 44.9902 25.8978 44.9902 25.5C44.9902 25.1022 44.8322 24.7206 44.5509 24.4393C44.2696 24.158 43.8881 24 43.4902 24H38.9902V21H40.4902C41.6837 21 42.8283 20.5259 43.6722 19.682C44.5161 18.8381 44.9902 17.6935 44.9902 16.5V15C44.9902 14.6022 44.8322 14.2206 44.5509 13.9393C44.2696 13.658 43.8881 13.5 43.4902 13.5C43.0924 13.5 42.7109 13.658 42.4296 13.9393C42.1483 14.2206 41.9902 14.6022 41.9902 15V16.5C41.9902 16.8978 41.8322 17.2794 41.5509 17.5607C41.2696 17.842 40.8881 18 40.4902 18H38.9902ZM22.4902 47.925V21H8.99023V18H7.49023C7.09241 18 6.71088 17.842 6.42957 17.5607C6.14827 17.2794 5.99023 16.8978 5.99023 16.5V15C5.99023 14.6022 5.8322 14.2206 5.55089 13.9393C5.26959 13.658 4.88806 13.5 4.49023 13.5C4.09241 13.5 3.71088 13.658 3.42957 13.9393C3.14827 14.2206 2.99023 14.6022 2.99023 15V16.5C2.99023 17.6935 3.46434 18.8381 4.30825 19.682C5.15217 20.5259 6.29676 21 7.49023 21H8.99023V24H4.49023C4.09241 24 3.71088 24.158 3.42957 24.4393C3.14827 24.7206 2.99023 25.1022 2.99023 25.5C2.99023 25.8978 3.14827 26.2794 3.42957 26.5607C3.71088 26.842 4.09241 27 4.49023 27H8.99023V30H7.49023C6.29676 30 5.15217 30.4741 4.30825 31.318C3.46434 32.1619 2.99023 33.3065 2.99023 34.5V36C2.99023 36.3978 3.14827 36.7794 3.42957 37.0607C3.71088 37.342 4.09241 37.5 4.49023 37.5C4.88806 37.5 5.26959 37.342 5.55089 37.0607C5.8322 36.7794 5.99023 36.3978 5.99023 36V34.5C5.99023 34.1022 6.14827 33.7206 6.42957 33.4393C6.71088 33.158 7.09241 33 7.49023 33H8.99023C8.99019 36.7186 10.3714 40.3046 12.8659 43.0624C15.3604 45.8202 18.7903 47.5531 22.4902 47.925Z" fill="#BCB5E7"/>
</g>
<defs>
<clipPath id="clip0_40000116_1956">
<rect width="48" height="48" fill="white" transform="translate(-0.00976562)"/>
</clipPath>
</defs>
</svg>
