<svg width="20" height="21" viewBox="0 0 20 21" fill="none" xmlns="http://www.w3.org/2000/svg">
<path d="M6.79297 16.0234C6.79297 16.1016 6.70312 16.1641 6.58984 16.1641C6.46094 16.1758 6.37109 16.1133 6.37109 16.0234C6.37109 15.9453 6.46094 15.8828 6.57422 15.8828C6.69141 15.8711 6.79297 15.9336 6.79297 16.0234ZM5.57813 15.8477C5.55078 15.9258 5.62891 16.0156 5.74609 16.0391C5.84766 16.0781 5.96484 16.0391 5.98828 15.9609C6.01172 15.8828 5.9375 15.793 5.82031 15.7578C5.71875 15.7305 5.60547 15.7695 5.57813 15.8477ZM7.30469 15.7813C7.19141 15.8086 7.11328 15.8828 7.125 15.9727C7.13672 16.0508 7.23828 16.1016 7.35547 16.0742C7.46875 16.0469 7.54687 15.9727 7.53516 15.8945C7.52344 15.8203 7.41797 15.7695 7.30469 15.7813ZM9.875 0.8125C4.45703 0.8125 0.3125 4.92578 0.3125 10.3438C0.3125 14.6758 3.03906 18.3828 6.93359 19.6875C7.43359 19.7773 7.60938 19.4688 7.60938 19.2148C7.60938 18.9727 7.59766 17.6367 7.59766 16.8164C7.59766 16.8164 4.86328 17.4023 4.28906 15.6523C4.28906 15.6523 3.84375 14.5156 3.20312 14.2227C3.20312 14.2227 2.30859 13.6094 3.26562 13.6211C3.26562 13.6211 4.23828 13.6992 4.77344 14.6289C5.62891 16.1367 7.0625 15.7031 7.62109 15.4453C7.71094 14.8203 7.96484 14.3867 8.24609 14.1289C6.0625 13.8867 3.85938 13.5703 3.85938 9.8125C3.85938 8.73828 4.15625 8.19922 4.78125 7.51172C4.67969 7.25781 4.34766 6.21094 4.88281 4.85937C5.69922 4.60547 7.57812 5.91406 7.57812 5.91406C8.35938 5.69531 9.19922 5.58203 10.0313 5.58203C10.8633 5.58203 11.7031 5.69531 12.4844 5.91406C12.4844 5.91406 14.3633 4.60156 15.1797 4.85937C15.7148 6.21484 15.3828 7.25781 15.2813 7.51172C15.9063 8.20313 16.2891 8.74219 16.2891 9.8125C16.2891 13.582 13.9883 13.8828 11.8047 14.1289C12.1641 14.4375 12.4688 15.0234 12.4688 15.9414C12.4688 17.2578 12.457 18.8867 12.457 19.207C12.457 19.4609 12.6367 19.7695 13.1328 19.6797C17.0391 18.3828 19.6875 14.6758 19.6875 10.3438C19.6875 4.92578 15.293 0.8125 9.875 0.8125ZM4.10937 14.2852C4.05859 14.3242 4.07031 14.4141 4.13672 14.4883C4.19922 14.5508 4.28906 14.5781 4.33984 14.5273C4.39062 14.4883 4.37891 14.3984 4.3125 14.3242C4.25 14.2617 4.16016 14.2344 4.10937 14.2852ZM3.6875 13.9687C3.66016 14.0195 3.69922 14.082 3.77734 14.1211C3.83984 14.1602 3.91797 14.1484 3.94531 14.0938C3.97266 14.043 3.93359 13.9805 3.85547 13.9414C3.77734 13.918 3.71484 13.9297 3.6875 13.9687ZM4.95313 15.3594C4.89063 15.4102 4.91406 15.5273 5.00391 15.6016C5.09375 15.6914 5.20703 15.7031 5.25781 15.6406C5.30859 15.5898 5.28516 15.4727 5.20703 15.3984C5.12109 15.3086 5.00391 15.2969 4.95313 15.3594ZM4.50781 14.7852C4.44531 14.8242 4.44531 14.9258 4.50781 15.0156C4.57031 15.1055 4.67578 15.1445 4.72656 15.1055C4.78906 15.0547 4.78906 14.9531 4.72656 14.8633C4.67188 14.7734 4.57031 14.7344 4.50781 14.7852Z" fill="white"/>
</svg>
