<svg width="20" height="21" viewBox="0 0 20 21" fill="none" xmlns="http://www.w3.org/2000/svg">
<path d="M17.5 1.75H2.49609C1.80859 1.75 1.25 2.31641 1.25 3.01172V17.9883C1.25 18.6836 1.80859 19.25 2.49609 19.25H17.5C18.1875 19.25 18.75 18.6836 18.75 17.9883V3.01172C18.75 2.31641 18.1875 1.75 17.5 1.75ZM6.53906 16.75H3.94531V8.39844H6.54297V16.75H6.53906ZM5.24219 7.25781C4.41016 7.25781 3.73828 6.58203 3.73828 5.75391C3.73828 4.92578 4.41016 4.25 5.24219 4.25C6.07031 4.25 6.74609 4.92578 6.74609 5.75391C6.74609 6.58594 6.07422 7.25781 5.24219 7.25781ZM16.2617 16.75H13.668V12.6875C13.668 11.7188 13.6484 10.4727 12.3203 10.4727C10.9687 10.4727 10.7617 11.5273 10.7617 12.6172V16.75H8.16797V8.39844H10.6563V9.53906H10.6914C11.0391 8.88281 11.8867 8.19141 13.1484 8.19141C15.7734 8.19141 16.2617 9.92187 16.2617 12.1719V16.75Z" fill="white"/>
</svg>
