<svg width="49" height="48" viewBox="0 0 49 48" fill="none" xmlns="http://www.w3.org/2000/svg">
<g clip-path="url(#clip0_40000116_1973)">
<path d="M6.06016 11.4031C6.06016 10.2892 6.50266 9.22093 7.29031 8.43328C8.07796 7.64562 9.14625 7.20313 10.2602 7.20312C11.3741 7.20313 12.4424 7.64562 13.23 8.43328C14.0177 9.22093 14.4602 10.2892 14.4602 11.4031C14.4602 12.517 14.0177 13.5853 13.23 14.373C12.4424 15.1606 11.3741 15.6031 10.2602 15.6031C9.14625 15.6031 8.07796 15.1606 7.29031 14.373C6.50266 13.5853 6.06016 12.517 6.06016 11.4031ZM5.46016 23.2306C4.71016 24.0706 4.26016 25.1881 4.26016 26.4031C4.26016 27.6181 4.71016 28.7356 5.46016 29.5756V23.2231V23.2306ZM16.2902 19.5331C14.0627 21.5056 12.6602 24.3931 12.6602 27.6031C12.6602 30.1756 13.5602 32.5381 15.0602 34.3906V36.0031C15.0602 37.3306 13.9877 38.4031 12.6602 38.4031H7.86016C6.53266 38.4031 5.46016 37.3306 5.46016 36.0031V33.9931C2.62516 32.6431 0.660156 29.7556 0.660156 26.4031C0.660156 21.7606 4.41766 18.0031 9.06016 18.0031H11.4602C13.2602 18.0031 14.9252 18.5656 16.2902 19.5256V19.5331ZM34.2602 36.0031V34.3906C35.7602 32.5381 36.6602 30.1756 36.6602 27.6031C36.6602 24.3931 35.2577 21.5056 33.0302 19.5256C34.3952 18.5656 36.0602 18.0031 37.8602 18.0031H40.2602C44.9027 18.0031 48.6602 21.7606 48.6602 26.4031C48.6602 29.7556 46.6952 32.6431 43.8602 33.9931V36.0031C43.8602 37.3306 42.7877 38.4031 41.4602 38.4031H36.6602C35.3327 38.4031 34.2602 37.3306 34.2602 36.0031ZM34.8602 11.4031C34.8602 10.2892 35.3027 9.22093 36.0903 8.43328C36.878 7.64562 37.9462 7.20313 39.0602 7.20312C40.1741 7.20313 41.2424 7.64562 42.03 8.43328C42.8177 9.22093 43.2602 10.2892 43.2602 11.4031C43.2602 12.517 42.8177 13.5853 42.03 14.373C41.2424 15.1606 40.1741 15.6031 39.0602 15.6031C37.9462 15.6031 36.878 15.1606 36.0903 14.373C35.3027 13.5853 34.8602 12.517 34.8602 11.4031ZM43.8602 23.2306V29.5831C44.6102 28.7356 45.0602 27.6256 45.0602 26.4106C45.0602 25.1956 44.6102 24.0781 43.8602 23.2381V23.2306ZM24.6602 7.20312C25.9332 7.20313 27.1541 7.70884 28.0543 8.60901C28.9544 9.50919 29.4602 10.7301 29.4602 12.0031C29.4602 13.2762 28.9544 14.4971 28.0543 15.3972C27.1541 16.2974 25.9332 16.8031 24.6602 16.8031C23.3871 16.8031 22.1662 16.2974 21.266 15.3972C20.3659 14.4971 19.8602 13.2762 19.8602 12.0031C19.8602 10.7301 20.3659 9.50919 21.266 8.60901C22.1662 7.70884 23.3871 7.20313 24.6602 7.20312ZM18.6602 27.6031C18.6602 28.8181 19.1102 29.9281 19.8602 30.7756V24.4231C19.1102 25.2706 18.6602 26.3806 18.6602 27.5956V27.6031ZM29.4602 24.4306V30.7831C30.2102 29.9356 30.6602 28.8256 30.6602 27.6106C30.6602 26.3956 30.2102 25.2781 29.4602 24.4381V24.4306ZM34.2602 27.6031C34.2602 30.9556 32.2952 33.8431 29.4602 35.1931V38.4031C29.4602 39.7306 28.3877 40.8031 27.0602 40.8031H22.2602C20.9327 40.8031 19.8602 39.7306 19.8602 38.4031V35.1931C17.0252 33.8431 15.0602 30.9556 15.0602 27.6031C15.0602 22.9606 18.8177 19.2031 23.4602 19.2031H25.8602C30.5027 19.2031 34.2602 22.9606 34.2602 27.6031Z" fill="#BCB5E7"/>
</g>
<defs>
<clipPath id="clip0_40000116_1973">
<rect width="48" height="48" fill="white" transform="translate(0.660156)"/>
</clipPath>
</defs>
</svg>
