<svg width="49" height="48" viewBox="0 0 49 48" fill="none" xmlns="http://www.w3.org/2000/svg">
<g clip-path="url(#clip0_40000116_1998)">
<path d="M6.3301 18.0006C6.33 15.0282 7.06599 12.1021 8.47233 9.48347C9.87868 6.86485 11.9116 4.63526 14.3896 2.99378C16.8676 1.35229 19.7135 0.350008 22.6733 0.0764172C25.633 -0.197174 28.6145 0.266446 31.3514 1.42588C34.0883 2.58531 36.4955 4.40447 38.358 6.72091C40.2205 9.03736 41.4804 11.779 42.0252 14.701C42.57 17.623 42.3826 20.6345 41.48 23.4664C40.5773 26.2984 38.9873 28.8628 36.8521 30.9306C36.2431 31.5186 35.7751 32.1306 35.4931 32.7876L33.2071 38.0946C33.0911 38.3635 32.8989 38.5927 32.6542 38.7537C32.4095 38.9147 32.123 39.0005 31.8301 39.0006H16.8301C16.5367 39.0011 16.2495 38.9155 16.0042 38.7545C15.759 38.5934 15.5663 38.364 15.4501 38.0946L13.1671 32.7846C12.8378 32.0848 12.3764 31.4552 11.8081 30.9306C10.0724 29.2545 8.69267 27.2455 7.75142 25.0238C6.81017 22.8021 6.32675 20.4134 6.3301 18.0006ZM15.3301 43.5006C15.3301 43.1027 15.4881 42.7212 15.7694 42.4399C16.0507 42.1586 16.4323 42.0006 16.8301 42.0006H31.8301C32.2279 42.0006 32.6094 42.1586 32.8908 42.4399C33.1721 42.7212 33.3301 43.1027 33.3301 43.5006C33.3301 43.8984 33.1721 44.2799 32.8908 44.5612C32.6094 44.8425 32.2279 45.0006 31.8301 45.0006L31.1581 46.3416C30.9091 46.8398 30.5264 47.2589 30.0527 47.5519C29.579 47.8449 29.0331 48.0003 28.4761 48.0006H20.1841C19.6271 48.0003 19.0812 47.8449 18.6075 47.5519C18.1338 47.2589 17.7511 46.8398 17.5021 46.3416L16.8301 45.0006C16.4323 45.0006 16.0507 44.8425 15.7694 44.5612C15.4881 44.2799 15.3301 43.8984 15.3301 43.5006Z" fill="#BCB5E7"/>
</g>
<defs>
<clipPath id="clip0_40000116_1998">
<rect width="48" height="48" fill="white" transform="translate(0.330078)"/>
</clipPath>
</defs>
</svg>
