<svg width="48" height="48" viewBox="0 0 48 48" fill="none" xmlns="http://www.w3.org/2000/svg">
<g clip-path="url(#clip0_40000116_2014)">
<path fill-rule="evenodd" clip-rule="evenodd" d="M23.9902 0C21.9202 0 18.4613 0.795 15.2063 1.68C11.8763 2.58 8.51925 3.645 6.54525 4.29C5.71992 4.56255 4.98822 5.0624 4.4342 5.7321C3.88018 6.40181 3.52631 7.21422 3.41325 8.076C1.62525 21.507 5.77425 31.461 10.8082 38.046C12.9438 40.8622 15.489 43.3427 18.3593 45.405C19.5173 46.224 20.5912 46.851 21.5033 47.28C22.3433 47.676 23.2463 48 23.9902 48C24.7343 48 25.6343 47.676 26.4773 47.28C27.5778 46.7477 28.6298 46.1203 29.6213 45.405C32.4915 43.3427 35.0367 40.8622 37.1723 38.046C42.2063 31.461 46.3553 21.507 44.5673 8.076C44.4547 7.21368 44.1011 6.40063 43.547 5.73035C42.993 5.06007 42.261 4.55978 41.4352 4.287C38.5695 3.34803 35.6817 2.47778 32.7743 1.677C29.5193 0.798 26.0602 0 23.9902 0ZM23.9902 15C25.053 14.9984 26.082 15.373 26.895 16.0574C27.708 16.7418 28.2525 17.6918 28.4322 18.7392C28.6118 19.7867 28.415 20.8639 27.8766 21.7801C27.3381 22.6963 26.4927 23.3923 25.4902 23.745L26.6453 29.715C26.6873 29.9321 26.6808 30.1559 26.6262 30.3702C26.5716 30.5845 26.4703 30.7841 26.3295 30.9547C26.1887 31.1253 26.012 31.2626 25.8119 31.3569C25.6119 31.4512 25.3934 31.5 25.1723 31.5H22.8083C22.5873 31.4996 22.3692 31.4504 22.1695 31.356C21.9698 31.2615 21.7935 31.1241 21.653 30.9536C21.5126 30.783 21.4116 30.5836 21.3571 30.3695C21.3027 30.1554 21.2963 29.9319 21.3383 29.715L22.4902 23.745C21.4878 23.3923 20.6424 22.6963 20.104 21.7801C19.5655 20.8639 19.3687 19.7867 19.5483 18.7392C19.728 17.6918 20.2725 16.7418 21.0855 16.0574C21.8985 15.373 22.9275 14.9984 23.9902 15Z" fill="#BCB5E7"/>
</g>
<defs>
<clipPath id="clip0_40000116_2014">
<rect width="48" height="48" fill="white" transform="translate(-0.00976562)"/>
</clipPath>
</defs>
</svg>
