<svg width="37" height="40" viewBox="0 0 37 40" fill="none" xmlns="http://www.w3.org/2000/svg">
<path d="M32.6602 0H6.66016C4.24816 0 0.660156 1.598 0.660156 6V34C0.660156 38.402 4.24816 40 6.66016 40H36.6602V36H6.68416C5.76016 35.976 4.66016 35.612 4.66016 34C4.66016 33.798 4.67816 33.618 4.70816 33.454C4.93216 32.302 5.87616 32.02 6.68416 32H36.6602V4C36.6602 2.93913 36.2387 1.92172 35.4886 1.17157C34.7384 0.421427 33.721 0 32.6602 0ZM32.6602 18L28.6602 16L24.6602 18V4H32.6602V18Z" fill="#BCB5E7"/>
</svg>
