<?xml version="1.0" encoding="UTF-8"?>
<svg id="Layer_1" xmlns="http://www.w3.org/2000/svg" version="1.1" viewBox="0 0 16.2 16.2">
  <!-- Generator: Adobe Illustrator 29.6.1, SVG Export Plug-In . SVG Version: 2.1.1 Build 9)  -->
  <defs>
    <style>
      .st0 {
        fill: #fff;
        fill-rule: evenodd;
      }
    </style>
  </defs>
  <path class="st0" d="M14.8,0s0,0,0,0l1.4,1.4s0,0,0,0c0,0,0,0,0,0,0,0,0,0,0,0l-6.7,6.7,6.7,6.7s0,0,0,0c0,0,0,0,0,0,0,0,0,0,0,0l-1.4,1.4s0,0,0,0c0,0,0,0,0,0,0,0,0,0,0,0l-6.7-6.7-6.7,6.7s0,0,0,0c0,0,0,0,0,0,0,0,0,0,0,0L0,14.9s0,0,0,0c0,0,0,0,0,0,0,0,0,0,0,0l6.7-6.7L0,1.4s0,0,0,0c0,0,0,0,0,0,0,0,0,0,0,0L1.4,0s0,0,0,0c0,0,0,0,0,0,0,0,0,0,0,0l6.7,6.7L14.8,0s0,0,0,0c0,0,0,0,0,0h0Z"/>
</svg>