<svg width="49" height="48" viewBox="0 0 49 48" fill="none" xmlns="http://www.w3.org/2000/svg">
<g clip-path="url(#clip0_40000116_1937)">
<path d="M48.3301 24C48.3301 30.3652 45.8015 36.4697 41.3006 40.9706C36.7998 45.4714 30.6953 48 24.3301 48C17.9649 48 11.8604 45.4714 7.35952 40.9706C2.85864 36.4697 0.330078 30.3652 0.330078 24C0.330078 17.6348 2.85864 11.5303 7.35952 7.02944C11.8604 2.52856 17.9649 0 24.3301 0C30.6953 0 36.7998 2.52856 41.3006 7.02944C45.8015 11.5303 48.3301 17.6348 48.3301 24ZM16.8181 18.099H19.2931C19.7071 18.099 20.0371 17.76 20.0911 17.349C20.3611 15.381 21.7111 13.947 24.1171 13.947C26.1751 13.947 28.0591 14.976 28.0591 17.451C28.0591 19.356 26.9371 20.232 25.1641 21.564C23.1451 23.031 21.5461 24.744 21.6601 27.525L21.6691 28.176C21.6722 28.3728 21.7526 28.5605 21.8929 28.6986C22.0333 28.8367 22.2222 28.914 22.4191 28.914H24.8521C25.051 28.914 25.2418 28.835 25.3824 28.6943C25.5231 28.5537 25.6021 28.3629 25.6021 28.164V27.849C25.6021 25.695 26.4211 25.068 28.6321 23.391C30.4591 22.002 32.3641 20.46 32.3641 17.223C32.3641 12.69 28.5361 10.5 24.3451 10.5C20.5441 10.5 16.3801 12.27 16.0951 17.358C16.091 17.4549 16.1067 17.5516 16.1414 17.6421C16.176 17.7327 16.2288 17.8152 16.2965 17.8846C16.3643 17.9541 16.4455 18.0089 16.5352 18.0457C16.6248 18.0826 16.7211 18.1007 16.8181 18.099ZM23.7931 37.428C25.6231 37.428 26.8801 36.246 26.8801 34.647C26.8801 32.991 25.6201 31.827 23.7931 31.827C22.0411 31.827 20.7661 32.991 20.7661 34.647C20.7661 36.246 22.0381 37.428 23.7931 37.428Z" fill="#BCB5E7"/>
</g>
<defs>
<clipPath id="clip0_40000116_1937">
<rect width="48" height="48" fill="white" transform="translate(0.330078)"/>
</clipPath>
</defs>
</svg>
