<svg width="336" height="45" viewBox="0 0 336 45" fill="none" xmlns="http://www.w3.org/2000/svg">
<path d="M204.231 30.6953L204.377 30.5571H203.347C202.553 30.5571 201.784 30.8742 201.23 31.427C200.672 31.992 200.351 32.7725 200.351 33.5693C200.351 36.5937 197.892 37.9717 195.603 37.9717C193.446 37.9717 190.926 36.8172 190.926 33.5571V11.0611C190.905 10.3172 190.999 9.68716 191.223 9.07741C191.451 8.47578 191.789 7.93107 192.228 7.46765C192.668 7.00424 193.189 6.64245 193.78 6.38635C194.956 5.87822 196.308 5.87822 197.484 6.38635C198.079 6.64245 198.6 7.0083 199.04 7.47172C199.479 7.93513 199.817 8.47578 200.045 9.08147C200.269 9.67497 200.367 10.2929 200.342 10.988C200.359 11.7725 200.676 12.5368 201.222 13.0815C201.767 13.6343 202.541 13.9514 203.339 13.9514C204.137 13.9514 204.902 13.6343 205.456 13.0815C206.014 12.5164 206.335 11.7359 206.335 10.9392C206.343 3.43107 200.79 0.00830078 195.628 0.00830078C190.466 0.00830078 184.925 3.43107 184.925 10.9433V33.4107C184.925 38.5164 188.267 44.0124 195.599 44.0124C200.807 44.0124 206.339 40.3538 206.339 33.5774C206.339 32.7725 206.018 31.992 205.46 31.4351C205.122 31.0937 204.695 30.8416 204.231 30.6994V30.6953Z" fill="#003D8F"/>
<path d="M234.418 38.4295C233.828 37.8279 233.05 37.5108 232.171 37.5108H224.977V3.31164C224.977 3.12059 224.945 2.90514 224.932 2.83197L224.888 2.55554C224.879 2.52709 224.875 2.5027 224.871 2.48237L224.81 2.22221C224.594 1.60839 224.375 0.978309 223.76 0.55961C223.121 0.128715 222.351 -0.0582767 221.594 0.0392843C220.841 0.136845 220.14 0.506764 219.619 1.08806C219.106 1.66937 218.813 2.42953 218.793 3.23847V40.6734C218.785 41.1409 218.862 41.5637 219.017 41.9702C219.171 42.3726 219.404 42.7344 219.705 43.0474C220.002 43.3523 220.352 43.5921 220.751 43.7669C221.065 43.9011 221.378 43.9742 221.802 44.0068H232.155C233.006 44.0068 233.808 43.6694 234.41 43.0515C235.009 42.4377 235.355 41.5962 235.355 40.7385C235.355 39.8808 235.017 39.0393 234.422 38.4295H234.418Z" fill="#003D8F"/>
<path d="M264.29 6.69123C263.748 5.37009 262.967 4.19123 261.969 3.17903C260.972 2.16684 259.803 1.37416 258.496 0.833505C257.198 0.28879 255.822 0.0123671 254.401 0.0123671C252.98 0.0123671 251.567 0.29692 250.272 0.833505C248.97 1.38229 247.801 2.1709 246.796 3.17903C245.794 4.19123 245.012 5.37416 244.471 6.69529C243.929 8.01643 243.657 9.41481 243.657 10.8416V33.1709C243.657 36.0611 244.772 38.7847 246.8 40.8335C248.795 42.8498 251.563 44.0083 254.397 44.0083C254.543 44.0083 254.678 44.0083 254.816 44.0002H254.836L254.94 43.9937L255.016 43.988C257.633 43.8335 260.101 42.7116 261.965 40.8335C263.989 38.7888 265.104 36.0652 265.104 33.1709V10.8376C265.104 9.40261 264.831 8.0083 264.29 6.69123ZM252.495 37.7319C251.893 37.4798 251.36 37.1221 250.904 36.6587C250.452 36.2034 250.097 35.6628 249.853 35.0571C249.609 34.4473 249.487 33.8091 249.499 33.1506V10.8457C249.499 9.53676 250.004 8.29692 250.924 7.36603C251.828 6.45139 253.102 5.92294 254.413 5.91887C255.704 5.93513 256.921 6.45546 257.841 7.37822C258.753 8.30098 259.266 9.52456 259.282 10.8172V33.1709C259.282 34.4839 258.773 35.7197 257.853 36.6506C256.974 37.5408 255.813 38.049 254.572 38.0937H254.283C253.684 38.0855 253.069 37.9595 252.504 37.7319H252.495Z" fill="#003D8F"/>
<path d="M300.254 32.9311V2.89042C300.254 2.11806 299.94 1.37009 299.395 0.833505C298.861 0.309115 298.145 0.0204969 297.375 0.0204969C296.651 0.0204969 296.02 0.272529 295.38 0.817245C294.741 1.35383 294.371 2.10993 294.371 2.89448V32.9107C294.424 33.614 294.44 34.362 294.179 35.049C293.911 35.7644 293.516 36.3945 292.991 36.9189L292.95 36.9636C292.018 37.7807 290.796 38.2319 289.497 38.2319C287.279 38.2319 284.685 36.9229 284.685 33.2278V2.89855C284.685 2.11399 284.319 1.35383 283.68 0.809115C283.057 0.276594 282.405 0.0164318 281.681 0.0164318C280.923 0.0164318 280.186 0.31318 279.661 0.82944C279.116 1.36603 278.802 2.11399 278.802 2.88635V33.0774C278.802 40.2847 283.904 43.7522 288.976 43.992L290.124 44.0042L290.212 43.992L290.536 43.9636C292.889 43.7563 295.132 42.7725 296.891 41.1668C297.998 40.1099 298.857 38.8416 299.444 37.4026C300.034 35.9555 300.303 34.4473 300.242 32.9311H300.254Z" fill="#003D8F"/>
<path d="M324.814 0.00830078H316.794C316.04 0.00830078 315.328 0.305049 314.782 0.849764C314.253 1.38228 313.952 2.12619 313.952 2.88228V41.053C313.952 41.8172 314.245 42.5368 314.774 43.0733C315.308 43.6221 316.016 43.9229 316.765 43.9229L324.83 44.0124C331.572 44.0124 335.595 40.0611 335.595 33.4433V10.4677C335.595 3.91887 331.564 0.00830078 324.81 0.00830078H324.814ZM324.859 38.2644L319.639 38.2075V5.73594H324.818C329.508 5.73594 329.903 8.16684 329.903 10.4473V33.4229C329.903 36.8579 328.442 38.2603 324.859 38.2603V38.2644Z" fill="#003D8F"/>
<path d="M139.584 44.043C138.832 44.043 138.093 43.9696 137.36 43.8167C134.182 43.1625 131.407 41.1876 129.757 38.3873L129.714 38.3139C128.895 36.6692 129.433 34.731 130.973 33.8077C131.48 33.502 132.073 33.3369 132.666 33.3369C133.87 33.3369 134.988 33.9912 135.581 35.0489C135.618 35.1101 135.654 35.1712 135.697 35.2323L136.052 35.7154L136.528 36.1984C137.121 36.7181 137.885 37.0911 138.698 37.25C140.006 37.5007 141.405 37.1828 142.444 36.3879C143.557 35.5809 144.223 34.3764 144.327 33.0007C144.431 31.6433 143.948 30.2859 143.025 29.3627C143.025 29.3627 132.959 18.9135 132.507 18.4243C132.256 18.1553 131.798 17.6906 131.291 16.9814C129.873 14.9637 129.427 12.5975 129.647 10.2496C129.757 8.63546 130.246 7.0213 131.065 5.59057C131.065 5.59057 131.523 4.81407 131.663 4.6123C132.195 3.83579 133.246 2.83306 133.968 2.26443C134.658 1.72638 135.581 1.25559 135.899 1.10273C137.879 0.14891 140.409 -0.303543 142.903 0.222281C146.008 0.888731 148.684 2.82083 150.255 5.53554C150.707 6.29371 150.836 7.1925 150.604 8.06072C150.371 8.93506 149.809 9.66265 149.015 10.1151C148.526 10.4025 147.963 10.5614 147.383 10.5614C146.185 10.5614 145.048 9.89499 144.486 8.86168C143.844 7.77947 142.799 7.03964 141.558 6.78896C140.342 6.54439 139.004 6.83787 138.007 7.58992C137.042 8.3114 136.431 9.45476 136.327 10.7204C136.229 11.9861 136.651 13.1906 137.525 14.1138L147.811 24.722C150.053 27.0393 151.221 30.2309 151.001 33.4898C150.707 36.7854 149.07 39.7752 146.503 41.7012C144.51 43.2053 142.059 44.0307 139.596 44.0307L139.584 44.043Z" fill="#003D8F"/>
<path d="M107.015 6.70336C104.595 6.70336 102.627 8.66603 102.627 11.0873V32.9701C102.627 35.428 104.552 37.354 107.015 37.354C109.478 37.354 111.403 35.3852 111.403 32.9701V11.0811C111.403 8.70883 109.393 6.69725 107.015 6.69725V6.70336ZM107.015 44.0368C100.91 44.0368 95.947 39.0721 95.947 32.9701V11.0873C95.9531 4.99138 100.916 0.0205111 107.015 0.0205111C113.115 0.0205111 118.083 4.98526 118.083 11.0873V32.9701C118.083 39.0721 113.121 44.0368 107.015 44.0368Z" fill="#003D8F"/>
<path d="M63.7263 1.91592C63.7263 1.91592 63.708 1.86701 63.6957 1.85478C63.1273 0.74199 61.9172 0.044968 60.6705 0.044968C60.4443 0.044968 60.206 0.0633107 59.9982 0.112225C58.4458 0.42405 57.3579 1.75695 57.3579 3.36499V4.12927L75.7296 42.2148C76.3285 43.3276 77.4959 44.0491 78.6999 44.0491C78.9688 44.0491 79.2377 44.0124 79.4638 43.9512C80.9978 43.6272 82.0674 42.2943 82.0674 40.7107V39.9892C82.0674 39.9892 64.2152 2.93088 63.7263 1.91592ZM82.1224 35.3363V3.35888C82.1224 1.48181 80.6556 0.0205111 78.7793 0.0205111C76.903 0.0205111 75.4362 1.48793 75.4362 3.35888V21.4692L82.1163 35.3363H82.1224ZM63.9952 22.5942V40.6924C63.9952 42.5633 62.5284 44.0307 60.6521 44.0307C58.7758 44.0307 57.309 42.5633 57.309 40.6924V8.73329L63.9891 22.5942H63.9952Z" fill="#003D8F"/>
<path d="M32.3124 6.70336C31.145 6.70336 30.0449 7.15582 29.2137 7.98735C28.3826 8.81889 27.9242 9.91945 27.9242 11.0873V32.9701C27.9242 34.1624 28.3764 35.269 29.1954 36.0883C30.0144 36.9076 31.1206 37.3601 32.3124 37.3601C33.5041 37.3601 34.5798 36.9015 35.411 36.0761C36.2422 35.2446 36.7005 34.144 36.7005 32.9762V11.0873C36.7005 9.93779 36.236 8.84334 35.3987 8.00569C34.5614 7.16193 33.4613 6.70336 32.3185 6.70336H32.3124ZM32.3124 44.0368C29.3604 44.0368 26.5857 42.8874 24.4955 40.7902C22.4054 38.693 21.2503 35.9233 21.2503 32.9701V11.0873C21.2503 8.13409 22.3992 5.35823 24.4955 3.26717C26.5857 1.1761 29.3604 0.0266254 32.3124 0.0266254C35.2643 0.0266254 38.039 1.1761 40.1292 3.26717C42.2194 5.35823 43.3745 8.13409 43.3745 11.0873V32.9701C43.3745 35.9233 42.2255 38.6991 40.1292 40.7902C38.039 42.8874 35.2582 44.0368 32.3124 44.0368Z" fill="#003D8F"/>
<path d="M3.63033 44.0185C1.59515 44.0185 7.62939e-06 42.4043 7.62939e-06 40.3438V3.60345C0.0366776 1.61021 1.63793 0.0205111 3.66089 0.0205111C5.31715 0.0205111 6.72283 1.09662 7.15676 2.69854C7.1751 2.75969 7.19954 2.8514 7.21788 2.95534L7.24233 3.11431C7.27288 3.31608 7.29122 3.50562 7.29122 3.69516C7.29122 3.69516 7.29122 39.922 7.29122 40.3377C7.28511 42.4043 5.67774 44.0185 3.63033 44.0185Z" fill="#003D8F"/>
</svg>
