<?xml version="1.0" encoding="UTF-8" standalone="no"?>
<!-- Created with Inkscape (http://www.inkscape.org/) -->

<svg
   version="1.1"
   id="svg2"
   width="563.14667"
   height="132.37241"
   viewBox="0 0 563.14667 132.37241"
   sodipodi:docname="Cloud_NetApp_Logos_Insta_NOT_STACKED_LEGACY_BLUE_BLACK-TEXT_3_26sep24_RGB.ai"
   xmlns:inkscape="http://www.inkscape.org/namespaces/inkscape"
   xmlns:sodipodi="http://sodipodi.sourceforge.net/DTD/sodipodi-0.dtd"
   xmlns="http://www.w3.org/2000/svg"
   xmlns:svg="http://www.w3.org/2000/svg">
  <defs
     id="defs6">
    <clipPath
       clipPathUnits="userSpaceOnUse"
       id="clipPath20">
      <path
         d="M 0,99.279 H 422.36 V 0 H 0 Z"
         id="path18" />
    </clipPath>
  </defs>
  <sodipodi:namedview
     id="namedview4"
     pagecolor="#ffffff"
     bordercolor="#000000"
     borderopacity="0.25"
     inkscape:showpageshadow="2"
     inkscape:pageopacity="0.0"
     inkscape:pagecheckerboard="0"
     inkscape:deskcolor="#d1d1d1" />
  <g
     id="g8"
     inkscape:groupmode="layer"
     inkscape:label="Cloud_NetApp_Logos_Insta_NOT_STACKED_LEGACY_BLUE_BLACK-TEXT_3_26sep24_RGB"
     transform="matrix(1.3333333,0,0,-1.3333333,0,132.3724)">
    <g
       id="g10"
       transform="translate(63.5879,67.4662)">
      <path
         d="m 0,0 v -29.059 h -13.168 v 17.433 h -7.533 V -29.059 H -33.867 V 0 Z"
         style="fill:#0054d7;fill-opacity:1;fill-rule:nonzero;stroke:none"
         id="path12" />
    </g>
    <g
       id="g14">
      <g
         id="g16"
         clip-path="url(#clipPath20)">
        <g
           id="g22"
           transform="translate(162.0569,50.4931)">
          <path
             d="M 0,0 -3.721,9.367 -7.456,0 Z m -6.425,16.973 h 5.546 L 10.822,-12.086 H 4.41 L 1.823,-5.61 H -9.28 l -2.563,-6.476 h -6.284 z m 60.228,-17.97 c 0,3.665 -2.41,6.096 -5.251,6.096 -2.842,0 -5.202,-2.431 -5.202,-6.096 v -0.079 c 0,-3.666 2.371,-6.096 5.202,-6.096 2.83,0 5.251,2.39 5.251,6.096 z M 37.347,9.998 h 6.079 V 6.833 c 1.492,2.061 3.53,3.587 6.691,3.587 4.997,0 9.765,-4.046 9.765,-11.415 v -0.079 c 0,-7.383 -4.691,-11.415 -9.765,-11.415 -3.251,0 -5.251,1.523 -6.691,3.297 v -9.486 H 37.347 Z M 28.782,-0.997 c 0,3.665 -2.396,6.096 -5.24,6.096 -2.843,0 -5.201,-2.431 -5.201,-6.096 v -0.079 c 0,-3.666 2.358,-6.108 5.201,-6.108 2.844,0 5.24,2.405 5.24,6.108 z M 12.352,9.998 h 6.079 V 6.833 c 1.478,2.061 3.519,3.573 6.68,3.573 5.01,0 9.764,-4.032 9.764,-11.403 v -0.079 c 0,-7.383 -4.678,-11.416 -9.764,-11.416 -3.238,0 -5.24,1.524 -6.68,3.298 V -18.68 H 12.352 Z M -30.719,4.651 h -2.549 v 5.361 h 2.549 v 5.635 h 6.093 V 10.01 h 5.035 V 4.649 h -5.035 v -9.433 c 0,-1.445 0.598,-2.154 1.95,-2.154 1.123,0 2.129,0.301 3.008,0.802 v -5.032 c -1.275,-0.788 -2.765,-1.275 -4.805,-1.275 -3.722,0 -6.232,1.523 -6.232,6.634 l -0.014,10.458 z m -9.712,-3.956 c -0.358,2.811 -1.962,4.703 -4.514,4.703 -2.551,0 -4.18,-1.867 -4.652,-4.703 z m -15.131,-1.85 v 0.079 c 0,6.304 4.361,11.494 10.606,11.494 7.164,0 10.439,-5.728 10.439,-11.995 0,-0.487 -0.038,-1.064 -0.076,-1.642 h -14.926 c 0.599,-2.838 2.511,-4.322 5.24,-4.322 2.039,0 3.519,0.656 5.202,2.258 l 3.48,-3.165 c -2,-2.562 -4.882,-4.125 -8.756,-4.125 -6.45,0 -11.218,4.652 -11.218,11.416 h 0.014 z m -27.864,18.128 h 5.699 l 13.117,-17.97 v 17.97 h 6.079 v -29.047 h -5.24 L -77.333,6.265 v -18.339 h -6.093 z"
             style="fill:#000000;fill-opacity:1;fill-rule:evenodd;stroke:none"
             id="path24" />
        </g>
        <path
           d="m 228.942,38.182 h 3.341 v 25.676 h -3.341 z"
           style="fill:#0054d7;fill-opacity:1;fill-rule:nonzero;stroke:none"
           id="path26" />
        <g
           id="g28"
           transform="translate(246.4542,57.6711)">
          <path
             d="m 0,0 c -2.575,0 -4.628,-1.028 -6.116,-3.057 v 2.661 h -3.269 v -19.093 h 3.269 v 10.895 c 0,3.283 2.19,5.576 5.325,5.576 3.064,0 4.893,-2.003 4.893,-5.36 V -19.489 H 7.371 V -7.694 C 7.371,-3.02 4.478,0 0,0"
             style="fill:#0054d7;fill-opacity:1;fill-rule:nonzero;stroke:none"
             id="path30" />
        </g>
        <g
           id="g32"
           transform="translate(264.7238,49.2805)">
          <path
             d="m 0,0 -0.077,0.023 c -2.329,0.709 -4.529,1.379 -4.529,2.939 v 0.072 c 0,1.441 1.376,2.447 3.347,2.447 1.705,0 3.611,-0.624 5.366,-1.758 L 4.324,3.583 5.84,6.095 5.64,6.227 c -1.984,1.31 -4.536,2.092 -6.827,2.092 -3.875,0 -6.58,-2.292 -6.58,-5.573 V 2.674 c 0,-3.692 3.66,-4.732 6.332,-5.492 2.526,-0.705 4.457,-1.376 4.457,-3.032 v -0.072 c 0,-1.614 -1.446,-2.698 -3.598,-2.698 -2.087,0 -4.261,0.803 -6.288,2.323 l -0.205,0.154 -1.687,-2.378 0.182,-0.148 c 2.123,-1.72 5.133,-2.789 7.854,-2.789 4.108,0 6.867,2.34 6.867,5.824 v 0.072 C 6.147,-2.131 3.11,-0.933 0,0"
             style="fill:#0054d7;fill-opacity:1;fill-rule:nonzero;stroke:none"
             id="path34" />
        </g>
        <g
           id="g36"
           transform="translate(277.7755,62.886)">
          <path
             d="m 0,0 h -3.27 v -5.61 h -2.589 v -2.946 h 2.589 v -10.971 c 0,-3.547 1.954,-5.5 5.501,-5.5 1.284,0 2.383,0.26 3.46,0.819 l 0.135,0.07 v 2.922 L 5.468,-21.388 C 4.549,-21.83 3.799,-22.01 2.879,-22.01 0.942,-22.01 0,-21.08 0,-19.167 V -8.556 H 5.898 V -5.61 L 0,-5.61 Z"
             style="fill:#0054d7;fill-opacity:1;fill-rule:nonzero;stroke:none"
             id="path38" />
        </g>
        <g
           id="g40"
           transform="translate(292.7731,40.4797)">
          <path
             d="m 0,0 c -2.131,0 -4.425,1.081 -4.425,3.455 v 0.071 c 0,2.254 1.936,3.599 5.18,3.599 1.756,0 3.464,-0.239 5.217,-0.73 V 4.785 C 5.972,2.057 3.405,0 0,0 m 0.935,17.048 c -3.019,0 -5.164,-0.794 -6.865,-1.569 l -0.21,-0.097 0.999,-2.736 0.246,0.112 c 1.524,0.699 3.25,1.345 5.542,1.345 3.411,0 5.289,-1.713 5.289,-4.822 V 8.962 C 4.535,9.343 2.88,9.675 0.468,9.675 -4.589,9.675 -7.73,7.278 -7.73,3.419 V 3.347 c 0,-3.966 3.617,-6.04 7.19,-6.04 3.207,0 5.248,1.397 6.476,2.759 V -2.298 H 9.098 V 9.317 c 0,2.408 -0.666,4.294 -1.98,5.608 -1.409,1.408 -3.49,2.123 -6.183,2.123"
             style="fill:#0054d7;fill-opacity:1;fill-rule:nonzero;stroke:none"
             id="path42" />
        </g>
        <g
           id="g44"
           transform="translate(319.9225,43.4216)">
          <path
             d="m 0,0 c -1.687,-1.81 -3.486,-2.69 -5.5,-2.69 -3.691,0 -6.583,3.066 -6.583,6.98 v 0.071 c 0,3.893 2.813,6.943 6.404,6.943 2.517,0 4.115,-1.311 5.465,-2.728 l 0.182,-0.191 2.177,2.305 -0.162,0.172 c -1.484,1.577 -3.692,3.388 -7.627,3.388 -5.393,0 -9.78,-4.469 -9.78,-9.96 V 4.217 c 0,-5.452 4.387,-9.888 9.78,-9.888 3.968,0 6.24,1.966 7.775,3.679 L 2.294,-1.81 0.171,0.184 Z"
             style="fill:#0054d7;fill-opacity:1;fill-rule:nonzero;stroke:none"
             id="path46" />
        </g>
        <path
           d="m 324.817,38.182 h 3.27 v 26.755 h -3.27 z"
           style="fill:#0054d7;fill-opacity:1;fill-rule:nonzero;stroke:none"
           id="path48" />
        <g
           id="g50"
           transform="translate(345.6041,46.3801)">
          <path
             d="m 0,0 c 0,-3.283 -2.189,-5.576 -5.324,-5.576 -3.064,0 -4.893,2.004 -4.893,5.36 v 11.112 h -3.27 V -0.899 c 0,-4.675 2.894,-7.695 7.371,-7.695 2.58,0 4.589,1.007 6.116,3.071 V -8.198 H 3.233 V 10.896 H 0 Z"
             style="fill:#0054d7;fill-opacity:1;fill-rule:nonzero;stroke:none"
             id="path52" />
        </g>
        <g
           id="g54"
           transform="translate(360.0597,49.2805)">
          <path
             d="m 0,0 -0.077,0.023 c -2.329,0.709 -4.529,1.379 -4.529,2.939 v 0.072 c 0,1.441 1.376,2.447 3.347,2.447 1.705,0 3.611,-0.624 5.366,-1.758 L 4.324,3.583 5.84,6.095 5.64,6.227 c -1.984,1.31 -4.536,2.092 -6.827,2.092 -3.875,0 -6.58,-2.292 -6.58,-5.573 V 2.674 c 0,-3.692 3.66,-4.732 6.332,-5.492 2.526,-0.705 4.457,-1.376 4.457,-3.032 v -0.072 c 0,-1.614 -1.446,-2.698 -3.598,-2.698 -2.087,0 -4.261,0.803 -6.288,2.323 l -0.205,0.154 -1.687,-2.378 0.182,-0.148 c 2.123,-1.72 5.133,-2.789 7.854,-2.789 4.108,0 6.867,2.34 6.867,5.824 v 0.072 C 6.147,-2.131 3.11,-0.933 0,0"
             style="fill:#0054d7;fill-opacity:1;fill-rule:nonzero;stroke:none"
             id="path56" />
        </g>
        <g
           id="g58"
           transform="translate(373.1115,62.886)">
          <path
             d="m 0,0 h -3.27 v -5.61 h -2.589 v -2.946 h 2.589 v -10.971 c 0,-3.547 1.954,-5.5 5.501,-5.5 1.284,0 2.383,0.26 3.46,0.819 l 0.135,0.07 v 2.922 L 5.468,-21.388 C 4.549,-21.83 3.799,-22.01 2.879,-22.01 0.942,-22.01 0,-21.08 0,-19.167 V -8.556 H 5.898 V -5.61 L 0,-5.61 Z"
             style="fill:#0054d7;fill-opacity:1;fill-rule:nonzero;stroke:none"
             id="path60" />
        </g>
        <g
           id="g62"
           transform="translate(392.399,57.5998)">
          <path
             d="m 0,0 c -3.047,0.119 -5.728,-1.493 -7.349,-4.372 v 4.048 h -3.269 v -19.094 h 3.269 v 7.659 c 0,5.026 2.796,8.274 7.123,8.274 H 0.24 v 3.475 z"
             style="fill:#0054d7;fill-opacity:1;fill-rule:nonzero;stroke:none"
             id="path64" />
        </g>
      </g>
    </g>
  </g>
</svg>
