<?xml version="1.0" encoding="utf-8"?>
<!-- Generator: Adobe Illustrator 28.6.0, SVG Export Plug-In . SVG Version: 9.03 Build 54939)  -->
<svg version="1.1" id="Layer_1" xmlns="http://www.w3.org/2000/svg" xmlns:xlink="http://www.w3.org/1999/xlink" x="0px" y="0px"
	 width="778.6px" height="669.9px" viewBox="0 0 778.6 669.9" style="enable-background:new 0 0 778.6 669.9;" xml:space="preserve"
	>
<style type="text/css">
	.Drop_x0020_Shadow{fill:none;}
	.Round_x0020_Corners_x0020_2_x0020_pt{fill:#FFFFFF;stroke:#231F20;stroke-miterlimit:10;}
	.Live_x0020_Reflect_x0020_X{fill:none;}
	.Bevel_x0020_Soft{fill:url(#SVGID_1_);}
	.Dusk{fill:#FFFFFF;}
	.Foliage_GS{fill:#FFDD00;}
	.Pompadour_GS{fill-rule:evenodd;clip-rule:evenodd;fill:#44ADE2;}
	.st0{fill-rule:evenodd;clip-rule:evenodd;fill:#6981FD;}
	.st1{fill:#1A2026;}
	.st2{fill-rule:evenodd;clip-rule:evenodd;fill:#1A2026;}
	.st3{fill:#FFFFFF;}
</style>
<linearGradient id="SVGID_1_" gradientUnits="userSpaceOnUse" x1="-1782.4026" y1="-168.6077" x2="-1781.6954" y2="-167.9006">
	<stop  offset="0" style="stop-color:#DEDFE3"/>
	<stop  offset="0.1783" style="stop-color:#DADBDF"/>
	<stop  offset="0.3611" style="stop-color:#CECFD3"/>
	<stop  offset="0.546" style="stop-color:#B9BCBF"/>
	<stop  offset="0.7324" style="stop-color:#9CA0A2"/>
	<stop  offset="0.9181" style="stop-color:#787D7E"/>
	<stop  offset="1" style="stop-color:#656B6C"/>
</linearGradient>
<g>
	<path id="path11949_00000181809259322915901570000000943667070896549795_" class="st0" d="M306.8,273.9l-58.3-36.4V81.7L391,0
		l139,81.8v163.9l-141.2,79.5l-49-30.7v-65.7v-9l-26.6-16.6v-84.5l77-44.1l75.2,44.3v88.5L405.8,241v-35.7
		c17.9-6.9,30.7-24.5,30.7-45.4c0-26.9-21.3-48.5-47.2-48.5c-25.9,0-47.2,21.6-47.2,48.5c0,20.9,12.8,38.5,30.7,45.4v67.5l17,10.7
		l104.4-58.8V102.3L390.8,41.5l-106.4,61v115.1l22.4,14L306.8,273.9z M389.3,137.7c11.7,0,21,10.1,21,22.3s-9.3,22.3-21,22.3
		c-11.7,0-21-10.1-21-22.3S377.6,137.7,389.3,137.7z"/>
	<g id="text11953_00000098928469775171569680000006489315088583812249_">
		<path id="path40150_00000104669325012835460900000011036318931409190587_" class="st3" d="M175.7,388.5L100.2,599H75.6L0,388.5
			h25.6l49.2,138.6c2,5.6,3.8,10.9,5.3,16c1.6,5.1,3.1,10,4.3,14.7c1.2,4.7,2.4,9.3,3.3,13.7c1-4.4,2.1-9,3.3-13.7
			c1.2-4.8,2.7-9.7,4.3-14.8c1.6-5.2,3.5-10.6,5.5-16.3l48.9-138.2L175.7,388.5z"/>
		<path id="path40152_00000047055042204632019800000008113435233082208658_" class="st3" d="M230.4,438.6c18.8,0,32.8,4.2,41.9,12.7
			c9.1,8.4,13.7,21.9,13.7,40.4V599h-17.4l-4.6-23.3h-1.2c-4.4,5.8-9,10.6-13.8,14.5c-4.8,3.8-10.4,6.8-16.7,8.8
			c-6.2,1.9-13.9,2.9-23,2.9c-9.6,0-18.1-1.7-25.6-5c-7.4-3.4-13.2-8.4-17.6-15.3c-4.2-6.8-6.3-15.4-6.3-25.9
			c0-15.7,6.2-27.8,18.7-36.3s31.5-13.1,57-13.8l27.2-1.2v-9.6c0-13.6-2.9-23.2-8.8-28.6c-5.9-5.5-14.1-8.2-24.8-8.2
			c-8.3,0-16.1,1.2-23.6,3.6c-7.5,2.4-14.6,5.2-21.3,8.5l-7.3-18.1c7.1-3.6,15.3-6.8,24.5-9.4C210.5,439.9,220.2,438.6,230.4,438.6
			L230.4,438.6z M262.4,521.2l-24,1c-19.7,0.8-33.5,4-41.6,9.6c-8.1,5.7-12.1,13.7-12.1,24c0,9,2.7,15.7,8.2,20
			c5.5,4.3,12.7,6.5,21.7,6.5c14,0,25.5-3.9,34.4-11.7s13.4-19.4,13.4-35L262.4,521.2z"/>
		<path id="path40154_00000112625878050160148170000014734285006748394115_" class="st3" d="M342.8,599h-24V375h24V599z"/>
		<path id="path40156_00000176017253772557925640000010070577104218618796_" class="st3" d="M400.6,375v116.3
			c0,3.8-0.1,8.5-0.4,14.1c-0.3,5.5-0.5,10.3-0.7,14.5h1c2-2.5,4.9-6.2,8.8-11.1c3.9-4.9,7.2-8.8,9.9-11.8l52.4-55.8h28.1
			l-63.5,67.4l68.1,90.4h-28.8l-55.7-74.7l-19.1,17.6V599h-23.8V375H400.6z"/>
		<path id="path40158_00000147211543679933178430000011525998689435041164_" class="st3" d="M567.7,438.3c13.4,0,24.9,3,34.5,8.9
			c9.6,5.9,16.9,14.3,22,25c5.1,10.7,7.6,23.1,7.6,37.4v14.8h-109c0.3,18.5,4.9,32.6,13.8,42.3c8.9,9.7,21.5,14.5,37.7,14.5
			c10,0,18.8-0.9,26.5-2.7c7.7-1.8,15.6-4.5,23.9-8.1v21c-8,3.6-15.9,6.1-23.7,7.8c-7.8,1.6-17,2.4-27.6,2.4
			c-15.2,0-28.4-3.1-39.7-9.2c-11.2-6.2-20-15.4-26.2-27.3c-6.2-12-9.4-26.7-9.4-44c0-17,2.8-31.7,8.5-44
			c5.8-12.5,13.8-22.1,24.2-28.8C541.3,441.7,553.6,438.3,567.7,438.3L567.7,438.3z M567.4,457.9c-12.8,0-22.9,4.2-30.5,12.5
			c-7.6,8.3-12.1,20-13.5,35h83.5c-0.1-9.4-1.6-17.7-4.5-24.8c-2.8-7.2-7.1-12.8-12.8-16.7C583.8,459.9,576.4,457.9,567.4,457.9z"/>
		<path id="path40160_00000057122109995357962780000015483762011688112050_" class="st3" d="M631.2,441.2h25.6l34.8,91.5
			c2,5.4,3.9,10.6,5.6,15.5c1.7,4.9,3.3,9.6,4.6,14.1c1.3,4.5,2.4,8.9,3.2,13.1h1c1.3-4.8,3.3-11.1,5.8-18.9
			c2.5-7.9,5.2-15.9,8.1-24l33-91.4h25.8l-68.7,180.9c-3.6,9.7-7.9,18.1-12.8,25.3c-4.8,7.2-10.7,12.7-17.6,16.6
			c-6.9,3.9-15.3,5.9-25,5.9c-4.5,0-8.5-0.3-11.9-0.9c-3.5-0.5-6.4-1.1-8.9-1.7v-19.1c2.1,0.5,4.7,0.9,7.6,1.3
			c3.1,0.4,6.2,0.6,9.5,0.6c5.9,0,11.1-1.2,15.4-3.5c4.4-2.2,8.2-5.5,11.4-9.8c3.2-4.3,5.9-9.5,8.2-15.4l8.6-22.2L631.2,441.2z"/>
	</g>
</g>
</svg>
