<?xml version="1.0" encoding="UTF-8" standalone="no"?>
<svg
   version="1.1"
   viewBox="0 0 187.9 63.5"
   id="svg1"
   sodipodi:docname="valkey-horizontal-squashed.svg"
   inkscape:version="1.3.2 (091e20ef0f, 2023-11-25)"
   xmlns:inkscape="http://www.inkscape.org/namespaces/inkscape"
   xmlns:sodipodi="http://sodipodi.sourceforge.net/DTD/sodipodi-0.dtd"
   xmlns="http://www.w3.org/2000/svg"
   xmlns:svg="http://www.w3.org/2000/svg">
  <defs
     id="defs1">
    <style
       id="style1">
      .cls-1 {
        fill: #1a2026;
      }

      .cls-2 {
        fill: #6983ff;
        fill-rule: evenodd;
      }
    </style>
  </defs>
  <!-- Generator: Adobe Illustrator 28.6.0, SVG Export Plug-In . SVG Version: 1.2.0 Build 709)  -->
  <g
     id="g1">
    <g
       id="svg2455">
      <sodipodi:namedview
         id="namedview2457"
         bordercolor="#000000"
         borderopacity="0.25"
         inkscape:current-layer="layer1"
         inkscape:cx="116.98434"
         inkscape:cy="87.167995"
         inkscape:deskcolor="#d1d1d1"
         inkscape:document-units="mm"
         inkscape:pagecheckerboard="0"
         inkscape:pageopacity="0.0"
         inkscape:showpageshadow="2"
         inkscape:window-height="991"
         inkscape:window-maximized="0"
         inkscape:window-width="1499"
         inkscape:window-x="26"
         inkscape:window-y="23"
         inkscape:zoom="3.0687869"
         pagecolor="#ffffff"
         showgrid="false"
         showguides="true">
        <sodipodi:guide
           id="guide4591"
           inkscape:locked="false"
           orientation="0,-1"
           position="85.88451,-88.306671" />
        <sodipodi:guide
           id="guide4593"
           inkscape:locked="false"
           orientation="0,-1"
           position="152.40791,-79.301081" />
        <sodipodi:guide
           id="guide6053"
           inkscape:locked="false"
           orientation="0,-1"
           position="84.903318,-108.01469" />
        <sodipodi:guide
           id="guide6055"
           inkscape:locked="false"
           orientation="0,-1"
           position="88.492521,-121.95736" />
        <sodipodi:guide
           id="guide7521"
           inkscape:locked="false"
           orientation="0,-1"
           position="80.071701,-130.37817" />
        <sodipodi:guide
           id="guide7523"
           inkscape:locked="false"
           orientation="0,-1"
           position="79.933655,-148.60028" />
        <sodipodi:guide
           id="guide7525"
           inkscape:locked="false"
           orientation="1,0"
           position="90.97735,-101.25042" />
        <sodipodi:guide
           id="guide7583"
           inkscape:locked="false"
           orientation="1,0"
           position="157.51562,-109.5332" />
        <sodipodi:guide
           id="guide11598"
           inkscape:locked="false"
           orientation="0,-1"
           position="92.724837,-180.67103" />
        <sodipodi:guide
           id="guide11782"
           inkscape:locked="false"
           orientation="0,-1"
           position="74.966614,-57.139811" />
        <sodipodi:guide
           id="guide11784"
           inkscape:locked="false"
           orientation="0,-1"
           position="106.35321,-40.47578" />
        <sodipodi:guide
           id="guide11786"
           inkscape:locked="false"
           orientation="1,0"
           position="79.658423,-50.50655" />
        <sodipodi:guide
           id="guide12011"
           inkscape:locked="false"
           orientation="0,-1"
           position="-7.6305961,15.568611" />
        <sodipodi:guide
           id="guide12013"
           inkscape:locked="false"
           orientation="0,-1"
           position="9.5993819,6.5259211" />
        <sodipodi:guide
           id="guide12015"
           inkscape:locked="false"
           orientation="1,0"
           position="16.075899,15.813001" />
        <sodipodi:guide
           id="guide12017"
           inkscape:locked="false"
           orientation="1,0"
           position="18.031074,-0.31719907" />
        <sodipodi:guide
           id="guide12023"
           inkscape:locked="false"
           orientation="1,0"
           position="20.088692,0.51731095" />
        <sodipodi:guide
           id="guide12025"
           inkscape:locked="false"
           orientation="1,0"
           position="1.9830038,10.690981" />
        <sodipodi:guide
           id="guide12027"
           inkscape:locked="false"
           orientation="1,0"
           position="-2.4354719e-08,21.381961" />
        <sodipodi:guide
           id="guide12029"
           inkscape:locked="false"
           orientation="1,0"
           position="64.232088,25.692832" />
        <sodipodi:guide
           id="guide12031"
           inkscape:locked="false"
           orientation="1,0"
           position="66.301309,35.952722" />
        <sodipodi:guide
           id="guide12033"
           inkscape:locked="false"
           orientation="0,-1"
           position="8.4493209,1.896791" />
        <sodipodi:guide
           id="guide12035"
           inkscape:locked="false"
           orientation="0,-1"
           position="7.7595809,-0.086209066" />
        <sodipodi:guide
           id="guide12037"
           inkscape:locked="false"
           orientation="0,-1"
           position="12.070459,20.347351" />
        <sodipodi:guide
           id="guide12039"
           inkscape:locked="false"
           orientation="0,-1"
           position="11.811806,22.416572" />
      </sodipodi:namedview>
      <g
         id="layer1"
         inkscape:groupmode="layer"
         inkscape:label="Layer 1">
        <path
           id="path11949"
           class="cls-2"
           d="M 15.028159,41.226852 5.6281589,37.646493 V 22.475477 l 23.0000001,-7.949611 22.3,7.949611 v 15.959908 l -22.7,7.76756 -7.9,-2.973519 v -7.282087 l -4.3,-1.63847 v -8.253032 l 12.4,-4.308568 12.1,4.308568 v 8.617137 l -9.6,3.276939 v -3.458992 c 2.9,-0.667524 4.9,-2.366678 4.9,-4.429936 0,-2.063258 -3.4,-4.733357 -7.6,-4.733357 -4.2,0 -7.6,2.123942 -7.6,4.733357 0,2.609415 2.1,3.762412 4.9,4.429936 v 6.614563 l 2.7,1.031629 16.8,-5.764986 v -11.95476 l -16.6,-5.947038 -17.1,5.947038 v 11.226552 l 3.6,1.395733 v 4.126516 z m 13.3,-13.289809 c 1.9,0 3.4,0.970945 3.4,2.184626 0,1.213681 -1.5,2.184626 -3.4,2.184626 -1.9,0 -3.4,-0.970945 -3.4,-2.184626 0,-1.213681 1.5,-2.184626 3.4,-2.184626 z"
           style="stroke-width:0.779" />
        <g
           id="text11953"
           transform="matrix(1,0,0,0.6068406,-0.17184111,10.884822)">
          <path
             id="path40150"
             class="cls-1"
             d="M 85.2,11.4 73.1,45.2 h -4 L 57,11.4 h 4.1 L 69,33.7 c 0.3,0.9 0.6,1.8 0.9,2.6 0.3,0.8 0.5,1.6 0.7,2.4 0.2,0.8 0.4,1.5 0.5,2.2 0.2,-0.7 0.3,-1.4 0.5,-2.2 0.2,-0.8 0.4,-1.6 0.7,-2.4 0.3,-0.8 0.6,-1.7 0.9,-2.6 l 7.9,-22.2 h 4.2 z" />
          <path
             id="path40152"
             class="cls-1"
             d="m 94,19.5 c 3,0 5.3,0.7 6.7,2 1.5,1.4 2.2,3.5 2.2,6.5 v 17.2 h -2.8 l -0.7,-3.7 h -0.2 c -0.7,0.9 -1.4,1.7 -2.2,2.3 -0.8,0.6 -1.7,1.1 -2.7,1.4 -1,0.3 -2.2,0.5 -3.7,0.5 -1.5,0 -2.9,-0.3 -4.1,-0.8 -1.2,-0.5 -2.1,-1.4 -2.8,-2.5 -0.7,-1.1 -1,-2.5 -1,-4.2 0,-2.5 1,-4.5 3,-5.8 2,-1.4 5.1,-2.1 9.2,-2.2 L 99.3,30 v -1.5 c 0,-2.2 -0.5,-3.7 -1.4,-4.6 -0.9,-0.9 -2.3,-1.3 -4,-1.3 -1.3,0 -2.6,0.2 -3.8,0.6 -1.2,0.4 -2.3,0.8 -3.4,1.4 l -1.2,-2.9 c 1.1,-0.6 2.5,-1.1 3.9,-1.5 1.5,-0.4 3,-0.6 4.7,-0.6 v 0 z m 5.1,13.3 -3.9,0.2 c -3.2,0.1 -5.4,0.6 -6.7,1.5 -1.3,0.9 -1.9,2.2 -1.9,3.9 0,1.7 0.4,2.5 1.3,3.2 0.9,0.7 2,1 3.5,1 2.3,0 4.1,-0.6 5.5,-1.9 1.4,-1.3 2.2,-3.1 2.2,-5.6 z" />
          <path
             id="path40154"
             class="cls-1"
             d="m 112.1,45.3 h -3.9 v -36 h 3.9 z" />
          <path
             id="path40156"
             class="cls-1"
             d="M 121.3,9.3 V 28 c 0,0.6 0,1.4 0,2.3 0,0.9 0,1.7 -0.1,2.3 h 0.2 c 0.3,-0.4 0.8,-1 1.4,-1.8 0.6,-0.8 1.2,-1.4 1.6,-1.9 l 8.4,-9 h 4.5 L 127.1,30.7 138,45.2 h -4.6 l -9,-12 -3.1,2.8 v 9.2 h -3.8 V 9.3 Z" />
          <path
             id="path40158"
             class="cls-1"
             d="m 148.2,19.4 c 2.2,0 4,0.5 5.6,1.4 1.5,1 2.7,2.3 3.5,4 0.8,1.7 1.2,3.7 1.2,6 v 2.4 H 141 c 0,3 0.8,5.2 2.2,6.8 1.4,1.6 3.5,2.3 6.1,2.3 2.6,0 3,-0.1 4.3,-0.4 1.2,-0.3 2.5,-0.7 3.8,-1.3 V 44 c -1.3,0.6 -2.6,1 -3.8,1.2 -1.2,0.3 -2.7,0.4 -4.4,0.4 -2.4,0 -4.6,-0.5 -6.4,-1.5 -1.8,-1 -3.2,-2.5 -4.2,-4.4 -1,-1.9 -1.5,-4.3 -1.5,-7.1 0,-2.7 0.5,-5.1 1.4,-7.1 0.9,-2 2.2,-3.5 3.9,-4.6 1.7,-1.1 3.7,-1.6 5.9,-1.6 v 0 z m 0,3.2 c -2.1,0 -3.7,0.7 -4.9,2 -1.2,1.3 -1.9,3.2 -2.2,5.6 h 13.4 c 0,-1.5 -0.3,-2.8 -0.7,-4 -0.4,-1.2 -1.1,-2.1 -2.1,-2.7 -0.9,-0.6 -2.1,-1 -3.6,-1 z" />
          <path
             id="path40160"
             class="cls-1"
             d="m 158.4,19.9 h 4.1 l 5.6,14.7 c 0.3,0.9 0.6,1.7 0.9,2.5 0.3,0.8 0.5,1.5 0.7,2.3 0.2,0.7 0.4,1.4 0.5,2.1 h 0.2 c 0.2,-0.8 0.5,-1.8 0.9,-3 0.4,-1.3 0.8,-2.6 1.3,-3.9 l 5.3,-14.7 H 182 L 171,49 c -0.6,1.6 -1.3,2.9 -2.1,4.1 -0.8,1.2 -1.7,2 -2.8,2.7 -1.1,0.6 -2.5,0.9 -4,0.9 -1.5,0 -1.4,0 -1.9,-0.1 -0.6,0 -1,-0.2 -1.4,-0.3 v -3.1 c 0.3,0 0.7,0.1 1.2,0.2 0.5,0 1,0 1.5,0 1,0 1.8,-0.2 2.5,-0.6 0.7,-0.4 1.3,-0.9 1.8,-1.6 0.5,-0.7 0.9,-1.5 1.3,-2.5 l 1.4,-3.6 -10.2,-25.4 z" />
        </g>
      </g>
    </g>
  </g>
</svg>
