<?xml version="1.0" encoding="UTF-8" standalone="no"?>
<!DOCTYPE svg PUBLIC "-//W3C//DTD SVG 1.1//EN" "http://www.w3.org/Graphics/SVG/1.1/DTD/svg11.dtd">
<!-- Hacky solution to color the logo until a dynamic solution is needed/a palette is decided upon -->
<svg width="100%" height="100%" viewBox="0 0 244 70" version="1.1" xmlns="http://www.w3.org/2000/svg" xmlns:xlink="http://www.w3.org/1999/xlink" xml:space="preserve" style="fill-rule:evenodd;clip-rule:evenodd;stroke-linejoin:round;stroke-miterlimit:2;" fill="#123678">
    <g transform="matrix(2.04879,0,0,1.52816,979.32,-456.758)">
        <g transform="matrix(2.45276,0,0,3.28839,-1112.69,-561.653)">
            <path d="M276.457,272.61L274.177,264.942L275.437,264.942L277.327,271.704L277.465,271.704L279.355,264.942L280.615,264.942L278.341,272.61L276.457,272.61Z" style="fill-rule:nonzero;"/>
            <path d="M284.449,272.61L284.497,271.218L284.455,271.038L284.455,269.19L284.461,268.896C284.461,268.444 284.346,268.112 284.116,267.9C283.886,267.688 283.517,267.582 283.009,267.582C282.597,267.582 282.215,267.64 281.863,267.756C281.511,267.872 281.193,268.006 280.909,268.158L281.017,267.174C281.177,267.082 281.365,266.992 281.581,266.904C281.797,266.816 282.041,266.744 282.313,266.688C282.585,266.632 282.883,266.604 283.207,266.604C283.651,266.604 284.027,266.657 284.335,266.763C284.643,266.869 284.891,267.022 285.079,267.222C285.267,267.422 285.404,267.662 285.49,267.942C285.576,268.222 285.619,268.534 285.619,268.878L285.619,272.61L284.449,272.61ZM282.463,272.742C281.883,272.742 281.439,272.599 281.131,272.313C280.823,272.027 280.669,271.62 280.669,271.092L280.669,270.912C280.669,270.352 280.842,269.937 281.188,269.667C281.534,269.397 282.079,269.21 282.823,269.106L284.587,268.854L284.653,269.706L282.961,269.946C282.557,270.002 282.269,270.099 282.097,270.237C281.925,270.375 281.839,270.578 281.839,270.846L281.839,270.93C281.839,271.198 281.922,271.404 282.088,271.548C282.254,271.692 282.507,271.764 282.847,271.764C283.159,271.764 283.427,271.712 283.651,271.608C283.875,271.504 284.057,271.365 284.197,271.191C284.337,271.017 284.433,270.824 284.485,270.612L284.647,271.398L284.431,271.398C284.367,271.638 284.261,271.86 284.113,272.064C283.965,272.268 283.758,272.432 283.492,272.556C283.226,272.68 282.883,272.742 282.463,272.742Z" style="fill-rule:nonzero;"/>
            <rect x="287.035" y="264.666" width="1.176" height="7.944" style="fill-rule:nonzero;"/>
            <path d="M294.277,272.61L291.739,269.166L290.941,269.166L290.941,268.212L291.739,268.212L294.241,264.942L295.609,264.942L292.645,268.776L292.639,268.488L295.687,272.61L294.277,272.61ZM289.831,272.61L289.831,264.942L291.025,264.942L291.025,272.61L289.831,272.61Z" style="fill-rule:nonzero;"/>
            <path d="M298.765,272.748C297.829,272.748 297.128,272.525 296.662,272.079C296.196,271.633 295.963,270.99 295.963,270.15L295.963,269.19C295.963,268.362 296.18,267.721 296.614,267.267C297.048,266.813 297.681,266.586 298.513,266.586C299.077,266.586 299.547,266.689 299.923,266.895C300.299,267.101 300.581,267.392 300.769,267.768C300.957,268.144 301.051,268.59 301.051,269.106L301.051,269.328C301.051,269.464 301.045,269.602 301.033,269.742C301.021,269.882 301.005,270.016 300.985,270.144L299.905,270.144C299.913,269.936 299.918,269.74 299.92,269.556C299.922,269.372 299.923,269.204 299.923,269.052C299.923,268.728 299.871,268.454 299.767,268.23C299.663,268.006 299.507,267.835 299.299,267.717C299.091,267.599 298.829,267.54 298.513,267.54C298.045,267.54 297.697,267.673 297.469,267.939C297.241,268.205 297.127,268.584 297.127,269.076L297.127,269.628L297.133,269.766L297.133,270.288C297.133,270.508 297.166,270.708 297.232,270.888C297.298,271.068 297.404,271.223 297.55,271.353C297.696,271.483 297.885,271.583 298.117,271.653C298.349,271.723 298.631,271.758 298.963,271.758C299.339,271.758 299.692,271.71 300.022,271.614C300.352,271.518 300.663,271.39 300.955,271.23L300.847,272.232C300.583,272.388 300.276,272.513 299.926,272.607C299.576,272.701 299.189,272.748 298.765,272.748ZM296.587,270.144L296.587,269.262L300.745,269.262L300.745,270.144L296.587,270.144Z" style="fill-rule:nonzero;"/>
            <path d="M304.963,271.572L304.339,271.842L305.989,266.742L307.195,266.742L304.525,274.674L303.337,274.674L304.267,271.92L304.795,272.364L303.469,272.364L301.627,266.742L302.845,266.742L304.309,271.572L304.963,271.572Z" style="fill-rule:nonzero;"/>
        </g>
        <g transform="matrix(0.136612,0,0,0.183154,-501.303,249.327)">
            <path d="M215.181,480.339L170.578,452.433L170.578,333.166L279.655,270.635L386.089,333.27L386.089,458.723L277.965,519.62L240.427,496.134L240.427,445.848L240.427,438.983L220.073,426.248L220.073,361.571L279.007,327.786L336.594,361.675L336.594,429.448L291.001,455.126L291.001,427.831C304.668,422.568 314.478,409.04 314.478,393.074C314.478,372.495 298.18,355.966 278.334,355.966C258.487,355.966 242.19,372.495 242.19,393.074C242.19,409.04 251.999,422.568 265.666,427.831L265.666,479.548L278.702,487.704L358.642,442.68L358.642,348.964L279.475,302.375L198.025,349.068L198.025,437.229L215.181,447.963L215.181,480.339ZM278.334,376.024C287.315,376.024 294.42,383.762 294.42,393.074C294.42,402.386 287.315,410.124 278.334,410.124C269.353,410.124 262.247,402.386 262.247,393.074C262.247,383.762 269.353,376.024 278.334,376.024Z"/>
        </g>
    </g>
</svg>
